<svg width="106" height="32" viewBox="0 0 106 32" fill="none" xmlns="http://www.w3.org/2000/svg">
<g clip-path="url(#clip0_3926_4928)">
<path d="M98.2136 0.833191H8.30569C8.02026 0.833191 7.73794 0.833191 7.45406 0.834746C7.21607 0.836302 6.97963 0.840968 6.73931 0.844857C6.21743 0.850301 5.69634 0.896189 5.18069 0.980963C4.66639 1.06823 4.1682 1.23263 3.70297 1.46861C3.00343 1.82668 2.398 2.34437 1.93564 2.97981C1.47328 3.61525 1.16698 4.3506 1.04151 5.12637C0.954967 5.64102 0.908422 6.16159 0.902291 6.68343C0.894514 6.9222 0.894514 7.16174 0.890625 7.39973V25.379C0.894514 25.6201 0.895292 25.8534 0.902291 26.0953C0.908513 26.6172 0.955178 27.1375 1.04229 27.6523C1.12784 28.168 1.29117 28.6681 1.5276 29.134C1.76326 29.5983 2.07203 30.0221 2.44379 30.3877C2.81147 30.7587 3.23635 31.0683 3.70219 31.3047C4.16769 31.5411 4.6661 31.7063 5.18069 31.7946C5.69634 31.8794 6.21743 31.9253 6.73931 31.9323C6.98041 31.9377 7.21607 31.9409 7.45406 31.9409C7.73871 31.9424 8.02026 31.9424 8.30569 31.9424H98.2136C98.4936 31.9424 98.7759 31.9424 99.0559 31.9409C99.2931 31.9409 99.5365 31.9377 99.7738 31.9331C100.295 31.9261 100.814 31.8802 101.329 31.7946C101.845 31.7057 102.346 31.5405 102.813 31.3047C103.278 31.0682 103.703 30.7586 104.07 30.3877C104.44 30.0201 104.751 29.5965 104.989 29.1324C105.224 28.6658 105.387 28.1664 105.472 27.6508C105.557 27.1359 105.606 26.6156 105.615 26.0937C105.618 25.8526 105.618 25.6193 105.618 25.3774C105.624 25.0943 105.624 24.8136 105.624 24.5266V8.24982C105.624 7.96516 105.624 7.68206 105.618 7.40051C105.618 7.16252 105.618 6.92297 105.615 6.68498C105.605 6.16285 105.557 5.64213 105.471 5.12715C105.386 4.6122 105.223 4.11314 104.989 3.64709C104.509 2.71155 103.748 1.94995 102.812 1.46939C102.345 1.23394 101.845 1.06959 101.328 0.981741C100.815 0.896189 100.294 0.850301 99.773 0.844857C99.5358 0.840968 99.2923 0.836302 99.0559 0.834746C98.7759 0.833191 98.4928 0.833191 98.2136 0.833191Z" fill="#A6A6A6"/>
<path d="M7.45553 31.2628C7.21832 31.2628 6.98732 31.2597 6.75244 31.255C6.26516 31.2485 5.77903 31.2058 5.29805 31.1275C4.84994 31.0502 4.41585 30.9065 4.0101 30.7013C3.60791 30.4978 3.24106 30.231 2.92358 29.9111C2.60164 29.5946 2.33367 29.2276 2.13028 28.8245C1.92422 28.4191 1.78153 27.9845 1.70718 27.5358C1.6273 27.0537 1.58414 26.5662 1.57807 26.0775C1.57263 25.9142 1.56641 25.3674 1.56641 25.3674V7.40142C1.56641 7.40142 1.57341 6.86322 1.57807 6.70534C1.58387 6.21747 1.62677 5.73075 1.7064 5.24939C1.78107 4.79985 1.92417 4.36353 2.1295 3.95677C2.33171 3.55389 2.59848 3.1868 2.91891 2.86947C3.56267 2.22295 4.39427 1.7964 5.29494 1.65074C5.77714 1.57219 6.26479 1.52941 6.754 1.52319L7.45553 1.51385H99.0504L99.7605 1.52397C100.244 1.52941 100.727 1.57141 101.206 1.64996C101.657 1.72681 102.095 1.87046 102.504 2.07617C103.312 2.49217 103.968 3.1503 104.383 3.95832C104.586 4.36275 104.726 4.79518 104.799 5.24083C104.88 5.72615 104.925 6.21691 104.934 6.70845C104.936 6.92855 104.936 7.16576 104.936 7.40065C104.943 7.6923 104.943 7.96996 104.943 8.24995V24.5275C104.943 24.8098 104.943 25.0859 104.936 25.3636C104.936 25.6163 104.936 25.8481 104.933 26.0869C104.925 26.5699 104.88 27.0513 104.801 27.528C104.728 27.98 104.587 28.418 104.381 28.8269C104.176 29.2255 103.909 29.5893 103.591 29.9048C103.273 30.2266 102.905 30.495 102.502 30.6997C102.094 30.9066 101.657 31.0508 101.206 31.1275C100.724 31.2052 100.239 31.248 99.7511 31.2542C99.524 31.2597 99.2845 31.2628 99.0543 31.2628L98.2104 31.2643L7.45553 31.2628Z" fill="black"/>
<path d="M20.1531 16.6218C20.1616 15.9728 20.334 15.3365 20.6544 14.772C20.9748 14.2076 21.4327 13.7333 21.9855 13.3933C21.6343 12.8916 21.1709 12.4787 20.6323 12.1874C20.0936 11.896 19.4944 11.7343 18.8823 11.7149C17.5757 11.5781 16.3095 12.4966 15.6437 12.4966C14.9655 12.4966 13.9405 11.7282 12.8376 11.7515C12.1239 11.7745 11.4283 11.9821 10.8186 12.3539C10.2089 12.7257 9.70596 13.2492 9.35875 13.8732C7.85458 16.4771 8.97687 20.3044 10.4173 22.4098C11.1382 23.4403 11.9805 24.5914 13.0834 24.5509C14.1621 24.5058 14.565 23.8626 15.8677 23.8626C17.1572 23.8626 17.5352 24.5509 18.6599 24.5253C19.8179 24.5058 20.5467 23.4893 21.242 22.4487C21.7603 21.7144 22.1593 20.9028 22.4242 20.0439C21.7514 19.7595 21.1773 19.2833 20.7734 18.6747C20.3696 18.0662 20.1538 17.3521 20.1531 16.6218ZM18.0283 10.3298C18.6595 9.57227 18.9706 8.59857 18.8955 7.61542C17.9311 7.71666 17.0402 8.17765 16.4005 8.90648C16.0878 9.26227 15.8483 9.67619 15.6956 10.1246C15.543 10.573 15.4801 11.047 15.5107 11.5197C15.9931 11.5247 16.4702 11.4202 16.9063 11.2141C17.3424 11.008 17.726 10.7056 18.0283 10.3298Z" fill="white"/>
<path d="M33.7881 21.9416H30.1078L29.2234 24.5517H27.6641L31.1515 14.8936H32.7715L36.2582 24.5517H34.6724L33.7881 21.9416ZM30.4881 20.7361H33.4062L31.9674 16.5004H31.9277L30.4881 20.7361ZM43.7884 21.0316C43.7884 23.2194 42.6171 24.6248 40.8493 24.6248C40.4017 24.6481 39.9566 24.5451 39.5649 24.3273C39.1732 24.1096 38.8507 23.786 38.6342 23.3936H38.6008V26.8811H37.1542V17.5099H38.5541V18.6812H38.5798C38.8062 18.2905 39.1342 17.9685 39.529 17.7494C39.9239 17.5303 40.3707 17.4222 40.822 17.4368C42.6093 17.4368 43.7884 18.8492 43.7884 21.0316ZM42.3029 21.0316C42.3029 19.606 41.5656 18.6688 40.4417 18.6688C39.3373 18.6688 38.5946 19.6254 38.5946 21.0316C38.5946 22.4502 39.3373 23.4006 40.4417 23.4006C41.5656 23.4006 42.3029 22.4697 42.3029 21.0316ZM51.5387 21.0316C51.5387 23.2194 50.3674 24.6248 48.5995 24.6248C48.152 24.6481 47.7069 24.5451 47.3152 24.3273C46.9235 24.1096 46.601 23.786 46.3845 23.3936H46.3511V26.8811H44.9052V17.5099H46.3044V18.6812H46.3308C46.5572 18.2905 46.8853 17.9685 47.2801 17.7494C47.6749 17.5303 48.1218 17.4222 48.5731 17.4368C50.3604 17.4368 51.5387 18.8492 51.5387 21.0316ZM50.0532 21.0316C50.0532 19.606 49.3158 18.6688 48.192 18.6688C47.0876 18.6688 46.3448 19.6254 46.3448 21.0316C46.3448 22.4502 47.0876 23.4006 48.192 23.4006C49.3158 23.4006 50.0532 22.4697 50.0532 21.0316ZM56.6601 21.8607C56.7675 22.8189 57.6977 23.4473 58.9701 23.4473C60.188 23.4473 61.0645 22.8189 61.0645 21.9548C61.0645 21.205 60.5357 20.7571 59.2835 20.4491L58.0321 20.1473C56.2588 19.7195 55.4352 18.8897 55.4352 17.5434C55.4352 15.8775 56.8872 14.7326 58.9498 14.7326C60.9907 14.7326 62.3898 15.8775 62.4365 17.5434H60.9774C60.8903 16.5798 60.0939 15.998 58.9288 15.998C57.7638 15.998 56.9681 16.5868 56.9681 17.4431C56.9681 18.1259 57.4768 18.528 58.722 18.8352L59.7859 19.0966C61.7676 19.5655 62.5905 20.3612 62.5905 21.7744C62.5905 23.5811 61.1516 24.7127 58.8627 24.7127C56.7208 24.7127 55.2742 23.6083 55.1809 21.8607H56.6601ZM65.71 15.844V17.5099H67.0493V18.6548H65.71V22.5365C65.71 23.1401 65.9784 23.4208 66.5671 23.4208C66.726 23.4181 66.8846 23.4069 67.0423 23.3874V24.5253C66.7777 24.5747 66.5088 24.5971 66.2397 24.5921C64.8141 24.5921 64.258 24.0563 64.258 22.6905V18.6548H63.2345V17.5099H64.258V15.844H65.71ZM67.8247 21.0316C67.8247 18.8158 69.1298 17.4236 71.1644 17.4236C73.206 17.4236 74.5048 18.8158 74.5048 21.0316C74.5048 23.2529 73.213 24.6388 71.1644 24.6388C69.1166 24.6388 67.8247 23.2529 67.8247 21.0316ZM73.0318 21.0316C73.0318 19.5119 72.3357 18.6144 71.1644 18.6144C69.9931 18.6144 69.2978 19.5181 69.2978 21.0316C69.2978 22.5575 69.9931 23.4473 71.1644 23.4473C72.3357 23.4473 73.0318 22.5575 73.0318 21.0316ZM75.6963 17.5099H77.0753V18.7085H77.1087C77.2022 18.3344 77.4215 18.0038 77.7298 17.7723C78.038 17.5408 78.4166 17.4223 78.8019 17.4368C78.9685 17.4362 79.1347 17.4542 79.2973 17.4905V18.8422C79.087 18.7781 78.8677 18.7486 78.6479 18.7551C78.4379 18.7466 78.2286 18.7836 78.0342 18.8636C77.8399 18.9436 77.6652 19.0648 77.522 19.2187C77.3789 19.3726 77.2708 19.5556 77.2051 19.7552C77.1394 19.9549 77.1177 20.1664 77.1414 20.3752V24.5517H75.6963V17.5099ZM85.9611 22.4837C85.7667 23.7615 84.5223 24.6388 82.9294 24.6388C80.8808 24.6388 79.6092 23.2669 79.6092 21.065C79.6092 18.8562 80.8878 17.4236 82.868 17.4236C84.817 17.4236 86.0412 18.7614 86.0412 20.8971V21.3925H81.0683V21.4796C81.0454 21.7387 81.0779 21.9998 81.1636 22.2454C81.2493 22.491 81.3863 22.7156 81.5655 22.9042C81.7447 23.0928 81.962 23.2412 82.2029 23.3394C82.4438 23.4375 82.7029 23.4834 82.9629 23.4737C83.3043 23.5057 83.6469 23.4266 83.9398 23.2482C84.2326 23.0698 84.4601 22.8017 84.5884 22.4837H85.9611ZM81.0753 20.3822H84.5954C84.6084 20.1492 84.5731 19.916 84.4918 19.6973C84.4104 19.4786 84.2847 19.2791 84.1226 19.1113C83.9604 18.9435 83.7654 18.811 83.5496 18.7221C83.3339 18.6332 83.102 18.5899 82.8688 18.5949C82.6334 18.5935 82.4 18.6387 82.1822 18.7279C81.9643 18.8171 81.7663 18.9486 81.5996 19.1148C81.4328 19.281 81.3006 19.4785 81.2106 19.696C81.1207 19.9136 81.0746 20.1468 81.0753 20.3822Z" fill="white"/>
<path d="M30.3089 7.62337C30.6119 7.60163 30.916 7.64741 31.1992 7.75741C31.4824 7.86742 31.7377 8.0389 31.9466 8.2595C32.1555 8.4801 32.3129 8.74431 32.4073 9.03308C32.5018 9.32185 32.531 9.62799 32.4928 9.9294C32.4928 11.4118 31.6917 12.2642 30.3089 12.2642H28.6328V7.62259L30.3089 7.62337ZM29.3538 11.6078H30.2288C30.4452 11.6206 30.6618 11.585 30.8628 11.5036C31.0638 11.4222 31.2442 11.297 31.3907 11.1372C31.5372 10.9773 31.6463 10.7868 31.7099 10.5795C31.7735 10.3722 31.7902 10.1533 31.7586 9.93873C31.7879 9.72502 31.7696 9.50747 31.705 9.30165C31.6404 9.09583 31.5311 8.90685 31.3849 8.74823C31.2387 8.58962 31.0593 8.4653 30.8594 8.38418C30.6595 8.30306 30.4441 8.26715 30.2288 8.27902H29.3538V11.6078ZM33.3063 10.5112C33.2851 10.2814 33.3121 10.0498 33.3855 9.83113C33.4589 9.61243 33.5771 9.41144 33.7326 9.24099C33.888 9.07055 34.0773 8.9344 34.2884 8.84125C34.4994 8.7481 34.7276 8.69998 34.9583 8.69998C35.1889 8.69998 35.4171 8.7481 35.6281 8.84125C35.8392 8.9344 36.0285 9.07055 36.1839 9.24099C36.3394 9.41144 36.4576 9.61243 36.531 9.83113C36.6044 10.0498 36.6314 10.2814 36.6102 10.5112C36.6332 10.7418 36.6076 10.9748 36.535 11.195C36.4625 11.4151 36.3446 11.6177 36.189 11.7895C36.0334 11.9614 35.8435 12.0988 35.6316 12.1928C35.4197 12.2868 35.1905 12.3353 34.9586 12.3353C34.7268 12.3353 34.4976 12.2868 34.2856 12.1928C34.0737 12.0988 33.8839 11.9614 33.7283 11.7895C33.5727 11.6177 33.4548 11.4151 33.3823 11.195C33.3097 10.9748 33.2833 10.7418 33.3063 10.5112ZM35.8993 10.5112C35.8993 9.75207 35.5579 9.30798 34.9598 9.30798C34.3586 9.30798 34.0211 9.75207 34.0211 10.5112C34.0211 11.2765 34.3586 11.7167 34.9598 11.7167C35.5587 11.7167 35.8993 11.2734 35.8993 10.5112ZM41.0006 12.2642H40.2835L39.5602 9.68441H39.5058L38.7848 12.2642H38.0747L37.1087 8.762H37.8103L38.4371 11.4343H38.4892L39.2094 8.762H39.8721L40.5923 11.4343H40.6467L41.2712 8.762H41.9627L41.0006 12.2642ZM42.7746 8.762H43.4396V9.31809H43.4909C43.5786 9.11827 43.7264 8.95078 43.9138 8.83897C44.1012 8.72716 44.3188 8.6766 44.5362 8.69433C44.7067 8.68153 44.8778 8.70724 45.0369 8.76954C45.1961 8.83184 45.3392 8.92915 45.4556 9.05426C45.5721 9.17936 45.6589 9.32906 45.7096 9.49226C45.7604 9.65546 45.7737 9.82799 45.7488 9.99707V12.2642H45.0573V10.1705C45.0573 9.60741 44.8131 9.32742 44.3014 9.32742C44.1857 9.32207 44.0702 9.34178 43.9629 9.38521C43.8555 9.42864 43.7589 9.49476 43.6794 9.57904C43.6 9.66332 43.5398 9.76378 43.5028 9.87351C43.4659 9.98325 43.4531 10.0997 43.4653 10.2148V12.2642H42.7746V8.762ZM46.8501 7.39471H47.5407V12.2634H46.8501V7.39471ZM48.502 10.5112C48.4802 10.2811 48.5067 10.0491 48.5798 9.82994C48.6529 9.61077 48.771 9.40928 48.9264 9.23838C49.0819 9.06748 49.2714 8.93094 49.4827 8.83751C49.694 8.74408 49.9225 8.69582 50.1535 8.69582C50.3846 8.69582 50.6131 8.74408 50.8244 8.83751C51.0357 8.93094 51.2252 9.06748 51.3806 9.23838C51.5361 9.40928 51.6542 9.61077 51.7273 9.82994C51.8004 10.0491 51.8269 10.2811 51.8051 10.5112C51.8281 10.7418 51.8024 10.9748 51.7299 11.195C51.6574 11.4151 51.5395 11.6177 51.3839 11.7895C51.2283 11.9614 51.0384 12.0988 50.8265 12.1928C50.6146 12.2868 50.3854 12.3353 50.1535 12.3353C49.9217 12.3353 49.6925 12.2868 49.4806 12.1928C49.2686 12.0988 49.0788 11.9614 48.9232 11.7895C48.7676 11.6177 48.6497 11.4151 48.5772 11.195C48.5046 10.9748 48.479 10.7418 48.502 10.5112ZM51.0942 10.5112C51.0942 9.75207 50.7528 9.30798 50.1547 9.30798C49.5535 9.30798 49.216 9.75207 49.216 10.5112C49.216 11.2765 49.5535 11.7167 50.1547 11.7167C50.7536 11.7167 51.0942 11.2734 51.0942 10.5112ZM52.5323 11.2734C52.5323 10.6434 53.0021 10.2794 53.8358 10.2281L54.7847 10.1736V9.87107C54.7847 9.50164 54.5397 9.29242 54.0676 9.29242C53.681 9.29242 53.4143 9.43397 53.3373 9.6813H52.6684C52.7384 9.0801 53.3046 8.69356 54.0995 8.69356C54.9768 8.69356 55.4722 9.13143 55.4722 9.87107V12.2642H54.8072V11.7719H54.7528C54.6417 11.9485 54.4858 12.0924 54.3009 12.1891C54.1161 12.2857 53.9088 12.3315 53.7005 12.3218C53.5534 12.3371 53.4048 12.3214 53.2642 12.2758C53.1235 12.2301 52.9941 12.1555 52.8841 12.0567C52.7741 11.9579 52.686 11.8371 52.6255 11.7022C52.5651 11.5673 52.5328 11.4212 52.5323 11.2734ZM54.7839 10.9747V10.6815L53.9284 10.7359C53.4461 10.7686 53.2284 10.9327 53.2284 11.2415C53.2284 11.5565 53.5014 11.7392 53.877 11.7392C53.9871 11.7503 54.0983 11.7392 54.204 11.7065C54.3097 11.6738 54.4077 11.6202 54.4923 11.5489C54.5769 11.4776 54.6463 11.39 54.6964 11.2914C54.7464 11.1928 54.7762 11.0851 54.7839 10.9747ZM56.3806 10.5112C56.3806 9.40442 56.9499 8.70367 57.835 8.70367C58.0538 8.69371 58.2708 8.7462 58.4609 8.85499C58.6509 8.96379 58.8061 9.12441 58.9083 9.31809H58.9604V7.39471H59.651V12.2634H58.9892V11.7112H58.9347C58.8245 11.9037 58.6636 12.0624 58.4696 12.17C58.2756 12.2776 58.0559 12.3301 57.8342 12.3218C56.9437 12.3218 56.3806 11.621 56.3806 10.5112ZM57.0946 10.5112C57.0946 11.2539 57.4446 11.7011 58.0302 11.7011C58.6135 11.7011 58.9728 11.2477 58.9728 10.5143C58.9728 9.78474 58.6089 9.32431 58.0302 9.32431C57.4485 9.32431 57.0946 9.77541 57.0946 10.5112ZM62.5108 10.5112C62.489 10.2811 62.5155 10.0491 62.5886 9.82994C62.6617 9.61077 62.7798 9.40928 62.9353 9.23838C63.0908 9.06748 63.2802 8.93094 63.4915 8.83751C63.7028 8.74408 63.9313 8.69582 64.1624 8.69582C64.3934 8.69582 64.6219 8.74408 64.8332 8.83751C65.0445 8.93094 65.234 9.06748 65.3895 9.23838C65.545 9.40928 65.663 9.61077 65.7361 9.82994C65.8092 10.0491 65.8357 10.2811 65.8139 10.5112C65.8369 10.7418 65.8113 10.9748 65.7387 11.195C65.6662 11.4151 65.5483 11.6177 65.3927 11.7895C65.2371 11.9614 65.0473 12.0988 64.8354 12.1928C64.6235 12.2868 64.3942 12.3353 64.1624 12.3353C63.9306 12.3353 63.7013 12.2868 63.4894 12.1928C63.2775 12.0988 63.0876 11.9614 62.932 11.7895C62.7764 11.6177 62.6586 11.4151 62.586 11.195C62.5135 10.9748 62.4879 10.7418 62.5108 10.5112ZM65.1031 10.5112C65.1031 9.75207 64.7624 9.30798 64.1635 9.30798C63.5631 9.30798 63.2248 9.75207 63.2248 10.5112C63.2248 11.2765 63.5631 11.7167 64.1635 11.7167C64.7624 11.7167 65.1031 11.2734 65.1031 10.5112ZM66.7418 8.762H67.4068V9.31809H67.4581C67.5458 9.11827 67.6936 8.95078 67.8809 8.83897C68.0683 8.72716 68.2859 8.6766 68.5034 8.69433C68.6738 8.68153 68.8449 8.70724 69.0041 8.76954C69.1632 8.83184 69.3063 8.92915 69.4228 9.05426C69.5392 9.17936 69.626 9.32906 69.6768 9.49226C69.7275 9.65546 69.7409 9.82799 69.7159 9.99707V12.2642H69.0245V10.1705C69.0245 9.60741 68.7803 9.32742 68.2685 9.32742C68.1528 9.32207 68.0374 9.34178 67.93 9.38521C67.8227 9.42864 67.726 9.49476 67.6466 9.57904C67.5672 9.66332 67.5069 9.76378 67.47 9.87351C67.433 9.98325 67.4202 10.0997 67.4324 10.2148V12.2642H66.741L66.7418 8.762ZM73.621 7.89014V8.77755H74.3801V9.36009H73.621V11.1606C73.621 11.5277 73.7719 11.6887 74.1164 11.6887C74.2045 11.6883 74.2926 11.6828 74.3801 11.6723V12.2479C74.2558 12.2703 74.1299 12.2822 74.0036 12.2836C73.2352 12.2836 72.9296 12.013 72.9296 11.3379V9.36009H72.3735V8.77755H72.9296V7.89014H73.621ZM75.3243 7.39471H76.0087V9.32431H76.0631C76.1552 9.12261 76.3071 8.9542 76.4984 8.84202C76.6896 8.72984 76.9108 8.67936 77.1317 8.69745C77.3013 8.68825 77.4707 8.71659 77.628 8.78043C77.7853 8.84428 77.9265 8.94205 78.0417 9.06678C78.1568 9.19151 78.243 9.34012 78.2941 9.50201C78.3452 9.66389 78.3599 9.83506 78.3373 10.0033V12.2642H77.6458V10.1736C77.6458 9.61363 77.3853 9.33053 76.8969 9.33053C76.778 9.32077 76.6585 9.33709 76.5466 9.37836C76.4348 9.41964 76.3333 9.48486 76.2493 9.56946C76.1653 9.65407 76.1007 9.75602 76.0603 9.86817C76.0198 9.98032 76.0043 10.1 76.0149 10.2187V12.2642H75.3243V7.39471ZM82.3676 11.3185C82.2737 11.6384 82.0704 11.9152 81.7932 12.1004C81.516 12.2857 81.1824 12.3676 80.8509 12.3319C80.6201 12.3381 80.3906 12.294 80.1785 12.2026C79.9664 12.1113 79.7768 11.9748 79.6228 11.8027C79.4687 11.6306 79.354 11.4271 79.2866 11.2062C79.2192 10.9853 79.2007 10.7524 79.2325 10.5236C79.2018 10.2943 79.2208 10.0611 79.2881 9.83976C79.3554 9.61843 79.4694 9.41413 79.6225 9.24069C79.7756 9.06725 79.9641 8.92871 80.1754 8.83445C80.3867 8.74019 80.6157 8.69241 80.8471 8.69433C81.8216 8.69433 82.4096 9.36009 82.4096 10.4598V10.7009H79.9363V10.7398C79.9255 10.8684 79.9416 10.9978 79.9837 11.1198C80.0259 11.2417 80.093 11.3536 80.1809 11.448C80.2688 11.5425 80.3755 11.6176 80.4941 11.6684C80.6127 11.7192 80.7406 11.7447 80.8696 11.7431C81.0348 11.7627 81.202 11.7328 81.3502 11.6572C81.4984 11.5816 81.6207 11.4637 81.7018 11.3185H82.3676ZM79.9363 10.1899H81.7057C81.7145 10.0723 81.6986 9.95415 81.659 9.84305C81.6194 9.73195 81.557 9.63037 81.4757 9.54487C81.3944 9.45936 81.2962 9.39183 81.1872 9.34661C81.0783 9.30138 80.9611 9.27948 80.8432 9.28231C80.7236 9.28085 80.605 9.30333 80.4942 9.34844C80.3835 9.39354 80.2829 9.46036 80.1984 9.54494C80.1139 9.62953 80.0471 9.73017 80.0021 9.84095C79.9571 9.95172 79.9348 10.0704 79.9363 10.1899Z" fill="white"/>
</g>
<defs>
<clipPath id="clip0_3926_4928">
<rect width="104.996" height="31.11" fill="white" transform="translate(0.888672 0.833191)"/>
</clipPath>
</defs>
</svg>
