<svg width="106" height="33" viewBox="0 0 106 33" fill="none" xmlns="http://www.w3.org/2000/svg">
<g clip-path="url(#clip0_3926_4938)">
<g clip-path="url(#clip1_3926_4938)">
<path d="M101.996 0.9328H4.77742C2.62972 0.9328 0.888672 2.67385 0.888672 4.82155V28.1541C0.888672 30.3017 2.62972 32.0428 4.77742 32.0428H101.996C104.144 32.0428 105.885 30.3017 105.885 28.1541V4.82155C105.885 2.67385 104.144 0.9328 101.996 0.9328Z" fill="black"/>
<path d="M101.996 1.555C102.863 1.555 103.693 1.89915 104.306 2.51175C104.919 3.12435 105.263 3.95521 105.263 4.82155V28.1541C105.263 29.0204 104.919 29.8513 104.306 30.4639C103.693 31.0764 102.863 31.4206 101.996 31.4206H4.77742C3.91108 31.4206 3.08022 31.0764 2.46762 30.4639C1.85503 29.8513 1.51087 29.0204 1.51087 28.1541V4.82155C1.51087 3.95521 1.85503 3.12435 2.46762 2.51175C3.08022 1.89915 3.91108 1.555 4.77742 1.555H101.996ZM101.996 0.9328H4.77742C3.74606 0.9328 2.75694 1.34251 2.02766 2.07179C1.29838 2.80107 0.888672 3.79019 0.888672 4.82155L0.888672 28.1541C0.888672 29.1854 1.29838 30.1745 2.02766 30.9038C2.75694 31.6331 3.74606 32.0428 4.77742 32.0428H101.996C103.028 32.0428 104.017 31.6331 104.746 30.9038C105.475 30.1745 105.885 29.1854 105.885 28.1541V4.82155C105.885 3.79019 105.475 2.80107 104.746 2.07179C104.017 1.34251 103.028 0.9328 101.996 0.9328Z" fill="#A6A6A6"/>
<path d="M37.7699 8.89729C37.783 9.18255 37.738 9.46749 37.6377 9.73486C37.5375 10.0022 37.384 10.2465 37.1866 10.4528C36.9659 10.6818 36.6996 10.8618 36.4047 10.9811C36.1099 11.1004 35.7933 11.1562 35.4755 11.145C33.5895 11.1302 32.4267 9.07928 33.3826 7.45379C33.4868 7.27724 33.612 7.11391 33.7567 6.96847C33.9801 6.7405 34.2479 6.56076 34.5436 6.44036C34.8392 6.31997 35.1564 6.26148 35.4755 6.2685C35.8045 6.26772 36.1296 6.33383 36.4321 6.46293C36.7137 6.57648 36.9641 6.75537 37.1632 6.98403L36.751 7.39623C36.5957 7.21168 36.3996 7.06574 36.1783 6.96991C35.9569 6.87408 35.7164 6.83099 35.4755 6.84403C35.2326 6.84284 34.9919 6.89072 34.7679 6.9848C34.5439 7.07887 34.3413 7.21721 34.172 7.39152C34.0028 7.56583 33.8705 7.77251 33.7831 7.99918C33.6957 8.22585 33.655 8.46784 33.6634 8.71063C33.6431 10.1238 35.1605 11.0283 36.394 10.3385C36.5325 10.2615 36.66 10.1666 36.7744 10.0561C37.0139 9.79715 37.1516 9.46038 37.1632 9.10728H35.4755V8.5473H37.7388C37.7598 8.66319 37.7699 8.77985 37.7699 8.89729ZM41.332 6.95292H39.232V8.43064H41.1453V8.99062H39.232V10.4683H41.332V11.0439H38.6098V6.37738H41.332V6.95292ZM43.883 11.0439H43.2841V6.95292H41.9775V6.37738H45.2207V6.95292H43.883V11.0439ZM47.5073 11.0439V6.37738H48.1062V11.0439H47.5073ZM50.7661 11.0439H50.1672V6.95292H48.8606V6.37738H52.0649V6.95292H50.7661V11.0439ZM58.1391 10.4372C57.6845 10.8894 57.0693 11.1432 56.4281 11.1432C55.7869 11.1432 55.1717 10.8894 54.717 10.4372C54.2751 9.96944 54.0289 9.35028 54.0289 8.70674C54.0289 8.0632 54.2751 7.44405 54.717 6.97625C54.9412 6.7505 55.2077 6.57133 55.5014 6.44907C55.795 6.3268 56.11 6.26385 56.4281 6.26385C56.7462 6.26385 57.0611 6.3268 57.3548 6.44907C57.6485 6.57133 57.915 6.7505 58.1391 6.97625C58.5828 7.44315 58.8302 8.06264 58.8302 8.70674C58.8302 9.35084 58.5828 9.97033 58.1391 10.4372ZM55.1604 10.0484C55.4971 10.3837 55.9529 10.5719 56.4281 10.5719C56.9033 10.5719 57.3591 10.3837 57.6958 10.0484C58.0281 9.68206 58.2122 9.20519 58.2122 8.71063C58.2122 8.21607 58.0281 7.73921 57.6958 7.3729C57.3591 7.03759 56.9033 6.84934 56.4281 6.84934C55.9529 6.84934 55.4971 7.03759 55.1604 7.3729C54.8281 7.73921 54.644 8.21607 54.644 8.71063C54.644 9.20519 54.8281 9.68206 55.1604 10.0484ZM59.6713 11.0439V6.37738H60.4024L62.6734 10.0095V6.37738H63.2723V11.0439H62.6501L60.278 7.24068V11.0439H59.6713Z" fill="white" stroke="white" stroke-width="0.15555" stroke-miterlimit="10"/>
<path d="M53.8831 17.849C51.3383 17.8607 49.761 20.6232 51.0435 22.8204C52.3268 25.0183 55.507 25.0035 56.7693 22.7939C57.0541 22.2945 57.204 21.7294 57.2041 21.1545C57.2104 20.7173 57.1287 20.2834 56.9639 19.8784C56.7991 19.4735 56.5544 19.1059 56.2445 18.7975C55.9347 18.4891 55.5659 18.2462 55.1602 18.0832C54.7545 17.9203 54.3202 17.8406 53.8831 17.849ZM53.8831 23.161C52.3424 23.2692 51.2621 21.6678 51.9395 20.2795C52.6169 18.8912 54.5426 18.7566 55.4067 20.0376C55.6291 20.3674 55.7489 20.7562 55.7497 21.1545C55.7622 21.4096 55.7235 21.6646 55.6359 21.9045C55.5483 22.1445 55.4136 22.3644 55.2396 22.5514C55.0656 22.7384 54.856 22.8887 54.623 22.9934C54.39 23.0981 54.1385 23.1551 53.8831 23.161ZM46.6422 17.849C44.0975 17.8552 42.514 20.6131 43.791 22.8142C45.0689 25.0144 48.2491 25.0066 49.5168 22.8002C49.8041 22.2992 49.9553 21.7319 49.9555 21.1545C49.9618 20.7173 49.8801 20.2834 49.7153 19.8784C49.5504 19.4735 49.3058 19.1059 48.9959 18.7975C48.6861 18.4891 48.3173 18.2462 47.9116 18.0832C47.5059 17.9203 47.0716 17.8406 46.6345 17.849H46.6422ZM46.6422 23.161C45.1015 23.2746 44.0158 21.6787 44.6878 20.2873C45.359 18.8966 47.2847 18.7543 48.1534 20.0314C48.379 20.3627 48.5003 20.7539 48.5011 21.1545C48.5136 21.4096 48.4749 21.6646 48.3873 21.9045C48.2997 22.1445 48.1649 22.3644 47.991 22.5514C47.817 22.7384 47.6074 22.8887 47.3744 22.9934C47.1414 23.0981 46.8898 23.1551 46.6345 23.161H46.6422ZM38.017 18.8679V20.2678H41.3769C41.3242 20.9272 41.0501 21.5494 40.5991 22.0333C40.263 22.3757 39.8589 22.644 39.4129 22.8208C38.9668 22.9976 38.4887 23.0791 38.0092 23.0599C35.1354 23.0599 33.3396 19.9489 34.7761 17.4601C35.1038 16.8926 35.5751 16.4213 36.1426 16.0937C36.7101 15.766 37.3539 15.5935 38.0092 15.5935C38.9564 15.5779 39.8711 15.9388 40.5525 16.5968L41.5402 15.6091C41.0802 15.1432 40.5313 14.7744 39.9261 14.5246C39.3209 14.2748 38.6717 14.149 38.017 14.1547C34.0621 14.0007 31.424 18.1858 33.2681 21.6872C33.7203 22.5457 34.4062 23.2588 35.2466 23.7439C36.0869 24.229 37.0474 24.4665 38.017 24.4288C38.6827 24.4589 39.3472 24.346 39.9656 24.0978C40.5841 23.8496 41.1422 23.4719 41.6024 22.9899C42.4174 22.0948 42.8525 20.9179 42.8157 19.7078C42.8182 19.4131 42.7922 19.1187 42.7379 18.829L38.017 18.8679ZM73.2569 19.9567C73.054 19.36 72.6747 18.8389 72.1692 18.4625C71.6636 18.0862 71.0557 17.8722 70.4258 17.849C70.0004 17.8482 69.5793 17.9346 69.1886 18.103C68.7979 18.2713 68.4459 18.518 68.1543 18.8278C67.8628 19.1376 67.6378 19.5039 67.4934 19.9041C67.349 20.3043 67.2883 20.7299 67.3148 21.1545C67.3054 21.5891 67.3836 22.0213 67.5449 22.4251C67.7062 22.8288 67.9473 23.1959 68.2536 23.5045C68.56 23.813 68.9254 24.0566 69.328 24.2208C69.7306 24.3849 70.1622 24.4663 70.5969 24.4599C71.141 24.4628 71.6773 24.3308 72.1577 24.0756C72.6382 23.8204 73.0479 23.4501 73.3502 22.9977L72.2224 22.22C72.0541 22.5006 71.8158 22.7327 71.5309 22.8935C71.246 23.0544 70.9242 23.1385 70.5969 23.1377C70.2601 23.1506 69.9271 23.0617 69.6414 22.8828C69.3556 22.7039 69.1303 22.4431 68.9948 22.1344L73.4202 20.3067L73.2569 19.9567ZM68.7459 21.0611C68.7301 20.8206 68.7625 20.5793 68.8412 20.3514C68.9198 20.1235 69.0432 19.9136 69.204 19.734C69.3648 19.5543 69.5598 19.4086 69.7776 19.3053C69.9954 19.202 70.2317 19.1432 70.4725 19.1323C70.7234 19.116 70.9735 19.1736 71.1919 19.298C71.4103 19.4224 71.5875 19.6082 71.7014 19.8323L68.7459 21.0611ZM65.1527 24.2655H66.6071V14.5436H65.1527V24.2655ZM62.7728 18.5879H62.7183C62.4991 18.3429 62.2305 18.147 61.9303 18.0129C61.6301 17.8789 61.305 17.8098 60.9762 17.8101C58.4283 17.9338 56.97 20.7687 58.3513 22.9129C58.6366 23.3563 59.0236 23.7252 59.4801 23.9888C59.9367 24.2525 60.4496 24.4033 60.9762 24.4288C61.3057 24.4342 61.6325 24.3674 61.9335 24.233C62.2345 24.0987 62.5024 23.9 62.7183 23.651H62.765V24.1255C62.765 25.3932 62.0884 26.0698 60.9995 26.0698C60.6369 26.0613 60.2849 25.9451 59.9885 25.736C59.6921 25.5269 59.4647 25.2343 59.3351 24.8954L58.0674 25.4243C58.306 26.0048 58.7126 26.5007 59.2351 26.8486C59.7575 27.1964 60.3719 27.3802 60.9995 27.3765C62.7028 27.3765 64.1105 26.3732 64.1105 23.931V18.0435H62.7728V18.5879ZM61.1084 23.161C59.5638 23.0249 58.7456 21.268 59.6361 19.9979C59.8047 19.7575 60.0239 19.5568 60.2782 19.41C60.5325 19.2631 60.8159 19.1737 61.1084 19.1479C61.3571 19.1606 61.6008 19.223 61.8251 19.3314C62.0493 19.4398 62.2496 19.592 62.4141 19.779C62.5786 19.966 62.7041 20.184 62.783 20.4202C62.862 20.6565 62.8929 20.9061 62.8739 21.1545C62.8951 21.4039 62.8655 21.655 62.7869 21.8927C62.7083 22.1303 62.5823 22.3496 62.4165 22.5371C62.2508 22.7247 62.0487 22.8767 61.8225 22.9839C61.5963 23.0912 61.3508 23.1514 61.1006 23.161H61.1084ZM80.0699 14.5436H76.5934V24.2655H78.0478V20.5789H80.0777C82.4009 20.7461 84.0334 18.3351 83.0161 16.2398C82.7519 15.6958 82.3308 15.2434 81.807 14.9411C81.2833 14.6387 80.6809 14.5003 80.0777 14.5436H80.0699ZM80.0699 19.2101H78.04V15.8969H80.1011C81.3851 15.8969 82.1878 17.2875 81.5461 18.3997C81.3994 18.6531 81.1887 18.8635 80.9351 19.0098C80.6815 19.1562 80.3939 19.2333 80.1011 19.2334L80.0699 19.2101ZM89.0374 17.8101C88.5079 17.7785 87.9807 17.9022 87.5206 18.1661C87.0605 18.43 86.6875 18.8226 86.4475 19.2956L87.7386 19.8323C87.8659 19.5977 88.0586 19.4051 88.2933 19.2781C88.5281 19.151 88.7947 19.095 89.0607 19.1167C89.2454 19.0952 89.4324 19.1106 89.611 19.1621C89.7896 19.2136 89.9562 19.3002 90.101 19.4167C90.2458 19.5333 90.3659 19.6775 90.4544 19.841C90.5429 20.0045 90.5979 20.184 90.6162 20.3689V20.47C90.1491 20.2226 89.6282 20.0944 89.0996 20.0967C87.7074 20.0967 86.2997 20.8745 86.2997 22.2822C86.3135 22.5824 86.3872 22.8767 86.5167 23.1479C86.6462 23.419 86.8287 23.6615 87.0535 23.8609C87.2782 24.0603 87.5407 24.2126 87.8254 24.3088C88.11 24.405 88.4111 24.4432 88.7107 24.421C89.077 24.4474 89.4436 24.3746 89.7721 24.2104C90.1005 24.0462 90.3787 23.7965 90.5773 23.4877H90.624V24.2655H92.024V20.5245C92.024 18.8212 90.7329 17.8335 89.0763 17.8335L89.0374 17.8101ZM88.8585 23.1377C88.3841 23.1377 87.723 22.8966 87.723 22.3133C87.723 21.5355 88.5474 21.2789 89.2785 21.2789C89.7406 21.2672 90.1972 21.38 90.6007 21.6055C90.552 22.0266 90.3529 22.4159 90.0399 22.7018C89.7269 22.9876 89.3212 23.1507 88.8974 23.161L88.8585 23.1377ZM97.126 18.0435L95.4616 22.2589H95.415L93.6883 18.0435H92.1328L94.7228 23.9388L93.245 27.2131H94.7616L98.7437 18.0435H97.126ZM84.052 24.2655H85.5064V14.5436H84.052V24.2655Z" fill="white"/>
<path d="M9.00892 6.79681C8.75537 7.10091 8.62782 7.49057 8.65116 7.88566V25.0895C8.62782 25.4846 8.75537 25.8742 9.00892 26.1783L9.06336 26.2328L18.6997 16.6042V16.3787L9.06336 6.74237L9.00892 6.79681Z" fill="url(#paint0_linear_3926_4938)"/>
<path d="M21.888 19.8169L18.6992 16.6048V16.3792L21.888 13.1594L21.958 13.1983L25.7767 15.3682C26.8656 15.9826 26.8656 16.9937 25.7767 17.6159L21.9735 19.778L21.888 19.8169Z" fill="url(#paint1_linear_3926_4938)"/>
<path d="M21.9807 19.7696L18.6986 16.4875L9.00781 26.1783C9.22975 26.3734 9.51288 26.4848 9.80826 26.4933C10.1036 26.5018 10.3927 26.4069 10.6255 26.2249L21.9885 19.7696" fill="url(#paint2_linear_3926_4938)"/>
<path d="M21.9806 13.2059L10.6177 6.75055C10.3849 6.56857 10.0958 6.47364 9.80044 6.48216C9.50506 6.49068 9.22194 6.60212 9 6.79722L18.6985 16.488L21.9806 13.2059Z" fill="url(#paint3_linear_3926_4938)"/>
<path opacity="0.2" d="M21.8874 19.7004L10.6178 26.1168C10.3932 26.2846 10.1203 26.3752 9.84001 26.3752C9.55967 26.3752 9.28685 26.2846 9.06226 26.1168L9.00781 26.1713L9.06226 26.2257C9.28624 26.3949 9.55929 26.4865 9.84001 26.4865C10.1207 26.4865 10.3938 26.3949 10.6178 26.2257L21.9807 19.7704L21.8874 19.7004Z" fill="black"/>
<path opacity="0.12" d="M9.00895 26.0694C8.7556 25.7651 8.62767 25.3758 8.65119 24.9805V25.0972C8.62786 25.4923 8.75541 25.8819 9.00895 26.186L9.0634 26.1316L9.00895 26.0694ZM25.7772 17.4986L21.8885 19.6996L21.9585 19.7696L25.7772 17.6074C25.9939 17.5056 26.1798 17.3484 26.3164 17.1518C26.4529 16.9552 26.5352 16.7261 26.555 16.4875C26.5113 16.7043 26.4185 16.9082 26.2836 17.0834C26.1488 17.2587 25.9756 17.4007 25.7772 17.4986Z" fill="black"/>
<path opacity="0.25" d="M10.6181 6.85903L25.7764 15.4765C26.1785 15.6748 26.4655 16.0481 26.5542 16.4876C26.5344 16.249 26.4521 16.0199 26.3155 15.8232C26.179 15.6266 25.993 15.4695 25.7764 15.3676L10.6181 6.75014C9.52921 6.13572 8.64258 6.64903 8.64258 7.89343V8.0101C8.66591 6.75792 9.53699 6.2446 10.6181 6.85903Z" fill="white"/>
</g>
</g>
<defs>
<linearGradient id="paint0_linear_3926_4938" x1="17.8442" y1="7.70678" x2="4.79352" y2="20.7574" gradientUnits="userSpaceOnUse">
<stop stop-color="#00A0FF"/>
<stop offset="0.01" stop-color="#00A1FF"/>
<stop offset="0.26" stop-color="#00BEFF"/>
<stop offset="0.51" stop-color="#00D2FF"/>
<stop offset="0.76" stop-color="#00DFFF"/>
<stop offset="1" stop-color="#00E3FF"/>
</linearGradient>
<linearGradient id="paint1_linear_3926_4938" x1="27.2" y1="16.4881" x2="8.38625" y2="16.4881" gradientUnits="userSpaceOnUse">
<stop stop-color="#FFE000"/>
<stop offset="0.41" stop-color="#FFBD00"/>
<stop offset="0.78" stop-color="#FFA500"/>
<stop offset="1" stop-color="#FF9C00"/>
</linearGradient>
<linearGradient id="paint2_linear_3926_4938" x1="20.1996" y1="18.2763" x2="2.49804" y2="35.9701" gradientUnits="userSpaceOnUse">
<stop stop-color="#FF3A44"/>
<stop offset="1" stop-color="#C31162"/>
</linearGradient>
<linearGradient id="paint3_linear_3926_4938" x1="6.56564" y1="1.07298" x2="14.4676" y2="8.97492" gradientUnits="userSpaceOnUse">
<stop stop-color="#32A071"/>
<stop offset="0.07" stop-color="#2DA771"/>
<stop offset="0.48" stop-color="#15CF74"/>
<stop offset="0.8" stop-color="#06E775"/>
<stop offset="1" stop-color="#00F076"/>
</linearGradient>
<clipPath id="clip0_3926_4938">
<rect width="105" height="31.11" fill="white" transform="translate(0.886719 0.9328)"/>
</clipPath>
<clipPath id="clip1_3926_4938">
<rect width="104.996" height="31.11" fill="white" transform="translate(0.888672 0.9328)"/>
</clipPath>
</defs>
</svg>
