<svg width="44" height="51" viewBox="0 0 44 51" fill="none" xmlns="http://www.w3.org/2000/svg">
<g clip-path="url(#clip0_3926_4989)">
<g clip-path="url(#clip1_3926_4989)">
<g clip-path="url(#clip2_3926_4989)">
<path d="M7.07368 50.4428C2.41118 50.4428 0.148682 48.1803 0.148682 43.5178V37.8241C0.148682 35.4803 2.20493 31.9803 11.9862 28.6428L12.6112 28.4366L12.2112 27.9428C9.86716 24.6271 8.60937 20.6659 8.61118 16.6053C8.61118 10.5616 10.3487 0.44281 22.0237 0.44281C26.6049 0.44281 30.1112 2.14281 32.4299 5.49281C34.8862 9.04281 35.4049 13.4866 35.4049 16.5928C35.4049 19.8991 34.1549 24.8491 31.8049 27.9241L31.4049 28.4428L32.0299 28.6428C35.5674 29.7928 43.7862 33.0178 43.7862 37.8178V43.5116C43.8612 45.8303 43.3362 47.5741 42.2299 48.7178C41.1237 49.8616 39.3737 50.4428 37.0737 50.4428H7.07368ZM13.6674 30.5303C10.4862 31.2428 2.22993 34.1178 2.22993 38.7491V43.4809C2.22993 47.6684 4.69408 48.4428 9.80033 48.4428H35.8753C40.1316 48.4428 41.7362 47.0746 41.7362 43.1934V38.5928C41.5549 33.8678 32.8674 31.0928 30.4862 30.5366L29.8781 30.3645C27.6843 31.9991 25.0526 32.8227 21.9831 32.8356C18.9135 32.8484 16.3417 32.0472 14.2675 30.4318L13.6674 30.5303ZM21.9924 2.67406C14.7549 2.79906 10.6112 7.94281 10.6112 16.7491C10.6112 23.2428 13.5924 30.8241 21.9987 30.8241C29.4987 30.8241 33.3862 23.7428 33.3862 16.7491C33.3862 6.36781 27.5674 2.66781 22.1362 2.66781L21.9924 2.67406Z" fill="#222222"/>
</g>
</g>
</g>
<defs>
<clipPath id="clip0_3926_4989">
<rect width="43.75" height="50" fill="white" transform="translate(0.148682 0.44281)"/>
</clipPath>
<clipPath id="clip1_3926_4989">
<rect width="43.75" height="50" fill="white" transform="translate(0.148682 0.44281)"/>
</clipPath>
<clipPath id="clip2_3926_4989">
<rect width="43.75" height="50" fill="white" transform="translate(0.148682 0.44281)"/>
</clipPath>
</defs>
</svg>
