<svg width="42" height="51" viewBox="0 0 42 51" fill="none" xmlns="http://www.w3.org/2000/svg">
<g clip-path="url(#clip0_3926_4981)">
<g clip-path="url(#clip1_3926_4981)">
<g clip-path="url(#clip2_3926_4981)">
<path d="M20.7779 50.44C16.6893 50.4536 12.768 48.8174 9.90165 45.9018C4.42608 40.2695 4.09972 31.4077 9.1462 25.3879L9.23508 25.2824L0.608482 5.88504C0.433155 5.38121 0.640694 4.82388 1.10286 4.55745L10.2794 0.530219C10.5113 0.459715 10.754 0.431492 10.9959 0.446897H31.3265L40.4586 4.563C40.8955 4.82294 41.1188 5.33198 41.0141 5.82949L32.4263 25.1768L32.5097 25.2824C36.3348 29.8417 37.1721 36.2042 34.6569 41.5979C32.1416 46.9917 26.7293 50.4398 20.7779 50.44ZM20.7779 21.694C15.3427 21.694 10.4427 24.9684 8.3632 29.9902C6.28372 35.0119 7.43436 40.7919 11.2785 44.6344C15.1226 48.477 20.903 49.6252 25.9239 47.5437C30.9448 45.4621 34.2172 40.5608 34.215 35.1255C34.2058 27.7091 28.1943 21.7001 20.7779 21.694ZM23.5887 20.1609L23.8609 20.2109C26.4093 20.6955 28.7784 21.8628 30.7155 23.5882L30.9432 23.7881L38.8255 5.96281L31.3598 2.66881L23.5887 20.1609ZM2.73597 5.96836L10.6127 23.6937L10.8404 23.4937C12.7766 21.7659 15.1459 20.5966 17.695 20.1109L17.9672 20.0609L10.1905 2.55772L2.73597 5.96836ZM19.9281 19.8887H21.6556L25.3829 11.4787H16.2063L19.9281 19.8887ZM15.3898 9.62342H26.1661L29.499 2.32442H12.168L15.3898 9.62342Z" fill="#222222"/>
<path d="M20.7782 45.1964C15.2208 45.1934 10.7175 40.6867 10.7185 35.1293C10.7195 29.5718 15.2245 25.0669 20.7819 25.0659C26.3394 25.0648 30.846 29.5681 30.8491 35.1256C30.846 40.6863 26.3389 45.1934 20.7782 45.1964ZM20.7782 26.8656C17.4209 26.8656 14.3948 28.8899 13.1131 31.993C11.8314 35.096 12.5471 38.6657 14.9259 41.035C17.3047 43.4042 20.8772 44.1055 23.9751 42.8113C27.073 41.5172 29.085 38.4829 29.0715 35.1256C29.0654 30.5488 25.3551 26.8409 20.7782 26.8378V26.8656Z" fill="#222222"/>
</g>
</g>
</g>
<defs>
<clipPath id="clip0_3926_4981">
<rect width="40.55" height="50" fill="white" transform="translate(0.546631 0.44281)"/>
</clipPath>
<clipPath id="clip1_3926_4981">
<rect width="40.55" height="50" fill="white" transform="translate(0.546631 0.44281)"/>
</clipPath>
<clipPath id="clip2_3926_4981">
<rect width="40.55" height="49.9931" fill="white" transform="translate(0.546631 0.446716)"/>
</clipPath>
</defs>
</svg>
