<svg width="51" height="51" viewBox="0 0 51 51" fill="none" xmlns="http://www.w3.org/2000/svg">
<g clip-path="url(#clip0_3926_4957)">
<path d="M25.8281 50.9328C12.021 50.9328 0.828125 39.7399 0.828125 25.9328C0.828125 12.1257 12.021 0.9328 25.8281 0.9328C39.6352 0.9328 50.8281 12.1257 50.8281 25.9328C50.8128 39.7336 39.6289 50.9175 25.8281 50.9328ZM8.93368 33.7106C8.54585 33.6674 8.25594 33.334 8.26701 32.9439V30.9606C8.26409 27.4068 10.2563 24.1522 13.4226 22.5384L13.9781 22.2661L13.6892 21.8328C12.6726 20.3661 12.2059 19.1161 12.2059 17.8884C12.2021 15.193 14.0354 12.8418 16.6503 12.1884H16.817C17.2053 12.2079 17.526 12.4983 17.5837 12.8828C17.5945 13.0922 17.5643 13.3017 17.4948 13.4995C17.3846 13.7194 17.18 13.877 16.9392 13.9272C15.0719 14.3839 13.7648 16.0661 13.7837 17.9884C13.8272 19.635 14.788 21.1191 16.2726 21.8328C16.341 21.9044 16.4347 21.9463 16.5337 21.9495C16.5537 21.944 16.5748 21.944 16.5948 21.9495V22.1272H16.7337C16.7638 22.1346 16.7874 22.1582 16.7948 22.1884V22.2439L16.8948 22.3439V22.9884C16.8913 23.0688 16.8445 23.1411 16.7726 23.1772C16.6378 23.2492 16.4863 23.2837 16.3337 23.2772C16.2412 23.2848 16.1483 23.2848 16.0559 23.2772H15.9392C12.4175 24.1736 9.93917 27.3268 9.90035 30.9606V32.8717C9.9198 33.1045 9.82186 33.3316 9.63924 33.4772C9.47532 33.6342 9.26035 33.7269 9.03368 33.7384L8.93368 33.7106ZM14.967 37.5606C14.1794 37.5022 13.5532 36.876 13.4948 36.0884V34.2661C13.4704 29.3555 16.4746 24.9375 21.0503 23.155L21.7503 22.8772L21.1948 22.3217C18.8504 20.4545 17.9337 17.3147 18.905 14.4793C19.8763 11.644 22.5257 9.72586 25.5226 9.68836H25.7226C29.51 9.83394 32.5315 12.8992 32.6226 16.6884C32.6661 18.876 31.6809 20.9574 29.9615 22.3106L29.4059 22.8661L30.1059 23.1439C34.6504 24.9994 37.5756 29.47 37.4559 34.3772V36.0884C37.3975 36.876 36.7713 37.5022 35.9837 37.5606H14.967ZM25.6281 23.8828C22.8642 23.8528 20.2046 24.9368 18.249 26.8902C16.2934 28.8437 15.2066 31.5022 15.2337 34.2661V35.9328H36.0226V34.3772C36.0249 28.6965 31.5066 24.0452 25.8281 23.8828H25.6281ZM25.5281 11.4161C24.0931 11.465 22.7191 12.0087 21.6392 12.955C20.6769 14.0423 20.1247 15.4316 20.0781 16.8828C20.0781 19.902 22.5256 22.3495 25.5448 22.3495C28.564 22.3495 31.0115 19.902 31.0115 16.8828C31.005 15.4289 30.4516 14.0307 29.4615 12.9661C28.3712 12.0066 26.9799 11.4584 25.5281 11.4161ZM41.617 34.2661C41.2292 34.2229 40.9393 33.8895 40.9504 33.4995V31.5661C40.9678 27.9471 38.5188 24.781 35.0115 23.8884C34.7186 23.8198 34.466 23.6354 34.3115 23.3772V22.5161C34.3552 22.4404 34.4094 22.3712 34.4726 22.3106C34.5948 22.0828 34.6615 22.0495 34.7781 22.0495H34.8115H34.8448C36.3178 21.338 37.2482 19.8407 37.2337 18.205C37.1832 16.3207 35.9249 14.6832 34.117 14.1495C33.9037 14.1209 33.7143 13.9987 33.6003 13.8161C33.479 13.604 33.4451 13.3529 33.5059 13.1161C33.6003 12.6384 33.8615 12.405 34.2781 12.405H34.4781C36.9821 13.1162 38.7231 15.3856 38.7615 17.9884C38.6979 19.4407 38.1414 20.828 37.1837 21.9217L36.8892 22.3661L37.4448 22.6384C40.6504 24.3939 42.4948 27.5328 42.5837 31.4884V33.3939C42.6031 33.6267 42.5052 33.8538 42.3226 33.9995C42.1595 34.1585 41.9444 34.2532 41.717 34.2661H41.617ZM25.8281 2.66613C12.9783 2.66613 2.56146 13.083 2.56146 25.9328C2.56146 38.7826 12.9783 49.1995 25.8281 49.1995C38.678 49.1995 49.0948 38.7826 49.0948 25.9328C49.0795 13.0893 38.6716 2.68144 25.8281 2.66613Z" fill="#222222"/>
</g>
<defs>
<clipPath id="clip0_3926_4957">
<rect width="50" height="50" fill="white" transform="translate(0.828125 0.9328)"/>
</clipPath>
</defs>
</svg>
