<svg width="44" height="51" viewBox="0 0 44 51" fill="none" xmlns="http://www.w3.org/2000/svg">
<g clip-path="url(#clip0_3926_4974)">
<g clip-path="url(#clip1_3926_4974)">
<g clip-path="url(#clip2_3926_4974)">
<path d="M42.6584 6.27329C42.447 6.10171 42.1696 6.03439 41.903 6.08999C41.8419 6.08999 35.7597 7.35088 30.344 5.53454C24.6395 3.6571 22.2899 0.513231 22.2899 0.485458C22.134 0.267963 21.8898 0.130594 21.623 0.110233C21.3561 0.0898713 21.094 0.188604 20.9068 0.379922C18.3358 2.80317 15.2188 4.57127 11.8196 5.53454C8.52261 6.36574 5.08741 6.49255 1.73811 5.90669C1.4714 5.84233 1.1899 5.90315 0.973568 6.07189C0.757233 6.24063 0.629701 6.49885 0.627197 6.7732V25.4643C0.627197 25.8086 0.682743 33.9683 6.64832 39.3506C11.8474 44.0498 20.6902 49.7098 21.0901 49.9487C21.3741 50.1181 21.7282 50.1181 22.0122 49.9487C27.2242 46.9663 32.1727 43.5453 36.804 39.7228C42.9473 34.4793 42.9917 26.5196 42.9917 26.2141V6.97317C42.992 6.70153 42.8695 6.44432 42.6584 6.27329ZM41.1754 26.2141C41.1754 26.2863 41.1198 33.685 35.6208 38.373C31.2187 42.0128 26.5219 45.2809 21.5789 48.1435C19.6793 46.9048 12.2917 42.0279 7.84811 38.0231C2.49908 33.1795 2.43242 25.542 2.43242 25.4643V7.85634C5.71889 8.29578 9.05892 8.1073 12.2751 7.30089C15.6777 6.35664 18.8237 4.65741 21.479 2.32957C22.5899 3.50713 25.195 5.76783 29.7775 7.28978C34.36 8.81172 39.0813 8.34514 41.1754 8.03964V26.2141ZM31.5327 17.2991L20.8569 28.2526L14.9357 22.7925C14.5691 22.4551 13.9984 22.4787 13.6609 22.8453C13.3235 23.2119 13.3471 23.7826 13.7137 24.12L20.2792 30.1689C20.6375 30.4999 21.1943 30.4851 21.5345 30.1356L32.8436 18.5544C33.1917 18.197 33.1843 17.625 32.8269 17.2768C32.4695 16.9287 31.8975 16.9361 31.5494 17.2935L31.5327 17.2991Z" fill="#222222"/>
</g>
</g>
</g>
<defs>
<clipPath id="clip0_3926_4974">
<rect width="42.77" height="50" fill="white" transform="translate(0.627197 0.102722)"/>
</clipPath>
<clipPath id="clip1_3926_4974">
<rect width="42.77" height="50" fill="white" transform="translate(0.627197 0.102722)"/>
</clipPath>
<clipPath id="clip2_3926_4974">
<rect width="42.77" height="49.9909" fill="white" transform="translate(0.627197 0.107605)"/>
</clipPath>
</defs>
</svg>
