<svg width="51" height="51" viewBox="0 0 51 51" fill="none" xmlns="http://www.w3.org/2000/svg">
<g clip-path="url(#clip0_3926_4961)">
<g clip-path="url(#clip1_3926_4961)">
<g clip-path="url(#clip2_3926_4961)">
<path d="M25.0181 7.82724C15.0186 7.82724 6.91251 15.9334 6.91251 25.9328C6.91251 35.9322 15.0186 44.0384 25.0181 44.0384C35.0175 44.0384 43.1236 35.9322 43.1236 25.9328C43.1114 15.9385 35.0124 7.83949 25.0181 7.82724ZM25.0181 0.9328C38.8188 0.948109 50.0028 12.132 50.0181 25.9328C50.0181 39.7399 38.8252 50.9328 25.0181 50.9328C11.2109 50.9328 0.0180664 39.7399 0.0180664 25.9328C0.0180664 12.1257 11.2109 0.9328 25.0181 0.9328ZM25.0181 42.2717C18.4013 42.2717 12.4365 38.285 9.90592 32.1713C7.37537 26.0576 8.77774 19.0215 13.4588 14.3451C18.14 9.66877 25.1775 8.27358 31.2886 10.8104C37.3997 13.3471 41.3804 19.3161 41.3736 25.9328C41.3644 34.9619 34.0472 42.2792 25.0181 42.2884V42.2717ZM25.0181 49.1772C37.8493 49.1619 48.2472 38.764 48.2625 25.9328C48.2625 13.0952 37.8556 2.68836 25.0181 2.68836C12.1805 2.68836 1.77362 13.0952 1.77362 25.9328C1.77362 38.7704 12.1805 49.1772 25.0181 49.1772ZM29.3125 25.1272C30.2771 24.3766 30.8327 23.216 30.8125 21.9939C30.9195 20.2937 29.9289 18.7149 28.3514 18.0717V15.5939C28.3514 15.1091 27.9584 14.7161 27.4736 14.7161C26.9888 14.7161 26.5958 15.1091 26.5958 15.5939V17.6772H23.4347V15.5939C23.4347 15.1091 23.0417 14.7161 22.557 14.7161C22.0722 14.7161 21.6792 15.1091 21.6792 15.5939V17.6717H19.6014C19.1166 17.6717 18.7236 18.0647 18.7236 18.5495C18.7236 19.0343 19.1166 19.4272 19.6014 19.4272H19.7236V25.4384V32.4384H19.6181C19.1333 32.4384 18.7403 32.8314 18.7403 33.3161C18.7403 33.8009 19.1333 34.1939 19.6181 34.1939H21.6847V36.2717C21.6847 36.7565 22.0777 37.1495 22.5625 37.1495C23.0473 37.1495 23.4403 36.7565 23.4403 36.2717V34.1939H26.6125V36.2717C26.6125 36.7565 27.0055 37.1495 27.4903 37.1495C27.9751 37.1495 28.3681 36.7565 28.3681 36.2717V33.9495C30.2514 33.4661 32.307 32.1828 32.307 29.3828C32.2958 27.0439 30.8736 25.7717 29.3125 25.1272ZM26.4958 19.4272C27.1864 19.395 27.8585 19.656 28.3463 20.1459C28.8341 20.6358 29.0922 21.309 29.057 21.9995C29.057 24.005 26.807 24.4995 26.4236 24.5661H21.4681V19.4272H26.4958ZM26.4958 32.4439H21.4625V26.3328H26.4903C26.657 26.3328 30.5403 26.3884 30.5403 29.3939C30.5403 32.3995 26.6847 32.4384 26.4958 32.4384V32.4439Z" fill="#222222"/>
</g>
</g>
</g>
<defs>
<clipPath id="clip0_3926_4961">
<rect width="50" height="50" fill="white" transform="translate(0.0180664 0.9328)"/>
</clipPath>
<clipPath id="clip1_3926_4961">
<rect width="50" height="50" fill="white" transform="translate(0.0180664 0.9328)"/>
</clipPath>
<clipPath id="clip2_3926_4961">
<rect width="50" height="50" fill="white" transform="translate(0.0180664 0.9328)"/>
</clipPath>
</defs>
</svg>
