<svg width="50" height="51" viewBox="0 0 50 51" fill="none" xmlns="http://www.w3.org/2000/svg">
<g clip-path="url(#clip0_3926_4968)">
<g clip-path="url(#clip1_3926_4968)">
<g clip-path="url(#clip2_3926_4968)">
<path d="M25.1059 49.6289C23.4177 49.6244 21.7346 49.4422 20.0845 49.0854C18.1685 48.5965 16.2785 48.0106 14.4218 47.3301C14.0577 47.1508 13.1828 46.6617 12.373 46.1562C9.87844 44.7052 7.65822 42.8271 5.81365 40.6077C4.30831 38.6893 2.00954 34.9124 1.83564 33.8255C1.79216 33.6788 1.74325 33.4994 1.68347 33.2821C1.57479 32.869 1.42262 32.2984 1.23242 31.7224C0.433552 29.1247 0.167264 25.2173 0.55311 21.7556C0.922652 17.9297 2.98774 12.9844 5.32455 10.2563L5.69953 9.79982C5.97418 9.48574 6.22487 9.15149 6.44948 8.79988C7.07519 8.04612 7.77222 7.35455 8.53087 6.73479C8.65587 6.6098 8.96563 6.37612 9.26996 6.14787C9.48734 5.98484 9.71558 5.81094 9.91122 5.65334L10.221 5.40335C10.6036 5.07018 11.0125 4.7685 11.4437 4.50124C12.9026 3.58397 14.4392 2.79657 16.0358 2.14812C18.8137 1.09686 21.7609 0.564516 24.731 0.577566C27.1819 0.577566 29.7252 0.860157 30.8121 1.25144C31.0512 1.31122 31.4045 1.4199 31.7903 1.5449L32.8065 1.85466C34.4529 2.39602 36.022 3.14863 37.4747 4.09365L37.8497 4.31103C38.4666 4.64881 39.0587 5.03019 39.6213 5.45226L40.3659 6.08266C40.7734 6.43046 41.181 6.77283 41.4527 7.01195C43.1683 8.70261 44.6703 10.597 45.9253 12.6529C46.3166 13.3431 46.8165 14.2343 47.0122 14.6202C47.485 15.381 48.561 18.7721 48.8653 20.2774C49.1697 21.7828 49.5609 26.0434 48.9631 29.2551C47.9331 35.3037 44.6543 40.7393 39.7844 44.4716C38.4252 45.4946 36.9838 46.4034 35.4749 47.1888C33.6689 48.0449 31.7733 48.6974 29.823 49.1343L29.6002 49.1669C28.1173 49.444 26.6142 49.5985 25.1059 49.6289ZM25.2798 47.8898L25.5787 47.8627C26.7304 47.7574 27.8603 47.4827 28.9318 47.0475C31.3555 45.7813 33.9423 43.0804 35.3716 40.3197C35.6277 39.8651 35.8336 39.384 35.9857 38.885L36.0835 38.5372H25.3777L25.2798 47.8898ZM13.5523 39.6295C13.7589 39.8905 13.9273 40.1796 14.0523 40.4881C15.813 44.0096 19.9812 47.5529 22.3181 47.5529H22.5191H23.5571V38.5317L13.1665 38.7437L13.248 39.0752C13.2747 39.2921 13.3836 39.4905 13.5523 39.6295ZM6.29188 38.6459L6.69947 39.0915C8.07883 40.6283 9.54106 42.0887 11.0796 43.4662C12.4306 44.4733 13.8886 45.328 15.4272 46.015L16.3239 46.4117L15.7804 45.6074C15.7804 45.5748 13.5034 42.3847 12.9491 41.5207C12.3948 40.6566 11.3405 38.7274 11.3296 38.6893L11.2481 38.5643L6.29188 38.6459ZM37.9584 38.5698C37.9584 38.5698 37.3552 39.5751 36.8715 40.5642C36.2466 41.7757 35.4903 42.9147 34.6162 43.9607C33.8119 44.9607 33.2196 45.7541 33.2196 45.7541L32.9478 46.1182L33.3989 46.1889C33.464 46.1936 33.5294 46.1936 33.5945 46.1889C34.1155 46.1795 34.6236 46.0252 35.0618 45.7432L35.4422 45.5096C35.877 45.2433 36.4259 44.9118 36.7193 44.765C38.6214 43.7651 42.8385 39.0752 43.0179 38.8795L43.4254 38.4285H38.0399L37.9584 38.5698ZM17.264 25.701C13.8458 25.701 10.8677 25.7988 10.8405 25.7988H10.6612L10.596 25.9619C10.596 26.0162 10.3786 26.5705 10.596 28.4617C10.8894 32.005 12.5687 36.6731 12.585 36.7221L12.6447 36.896H12.8295C12.8295 36.896 15.4326 36.9938 18.1716 36.9938H23.5734L23.7473 25.701H17.264ZM6.73207 25.6141C4.96588 25.6141 2.38452 25.701 2.35191 25.701H2.07475V25.9782C2.07475 26.2281 2.49321 32.1897 3.98224 34.9722C4.28913 35.572 4.6378 36.1494 5.02566 36.7003L5.10174 36.8036H5.22673C5.22673 36.8036 6.66686 36.8905 7.77549 36.8905C9.35691 36.8905 10.2536 36.7981 10.4329 36.6134C10.6123 36.4286 10.4329 35.7493 10.2862 35.4124C9.63622 32.9544 9.18372 30.4483 8.93302 27.9183C8.89862 27.2148 8.78932 26.5171 8.60696 25.8369V25.7988L8.57435 25.7662C8.4711 25.6847 8.40045 25.6141 6.72664 25.6141H6.73207ZM37.0508 25.576C33.7521 25.576 25.8287 25.701 25.7472 25.701H25.4863L25.2798 36.8036H36.79L37.0563 36.1406C37.9801 34.7765 39.5072 26.2336 38.6377 25.6467H38.6051H38.5725C38.0688 25.5736 37.5591 25.55 37.0508 25.576ZM40.8115 25.5108V25.7499C40.8115 25.7934 40.3713 30.2333 40.1376 31.5702C39.9039 32.9071 38.9583 36.3308 38.9475 36.3634L38.8551 36.7058H41.7788C44.1265 36.7058 44.7188 36.3253 44.8112 36.2493L44.8493 36.2221V36.184C45.669 34.8256 46.3396 33.3825 46.8491 31.88C47.4456 29.8561 47.7458 27.7566 47.7404 25.6467V25.3858L40.8115 25.5108ZM7.78636 13.555C5.61258 13.555 4.96588 13.8485 4.90066 13.8811L4.83002 13.9137L4.79198 13.9789C4.12213 15.0975 3.55464 16.2743 3.09643 17.495C2.8084 18.2721 2.50408 19.2721 2.39539 19.6688C1.99324 20.8698 2.18344 23.587 2.18888 23.7011V23.9565L8.68304 23.8479L8.73195 23.6413C8.73195 23.6033 8.93302 22.7338 9.03084 22.0436C9.12866 20.2829 10.3949 14.6202 10.4112 14.5604C10.4305 14.3991 10.3767 14.2376 10.2645 14.1202C9.9384 13.7561 9.10149 13.5605 7.78636 13.5605V13.555ZM17.9542 13.555C15.1174 13.555 12.5198 13.6528 12.5198 13.6528H12.335L12.2643 13.7941C11.718 14.9495 11.313 16.1666 11.0579 17.4189C10.7047 19.4949 10.3786 23.4457 10.3786 23.4729V23.7174L10.6177 23.7609C10.6612 23.7609 11.7861 23.962 17.0847 23.962H23.6549V13.7941L23.4213 13.7615C21.6045 13.5862 19.7789 13.519 17.9542 13.5605V13.555ZM25.3777 23.7663H25.6385C25.6929 23.7663 31.2577 23.9402 35.0238 23.9402C38.4855 23.9402 38.5834 23.8098 38.6975 23.6577C39.2409 22.9946 38.154 16.5929 37.453 14.6147L37.0998 13.5278H25.3777V23.7663ZM38.7301 13.5713L38.817 13.8974C38.817 13.9354 39.8061 17.5874 40.0126 18.7884C40.2191 19.9894 40.4854 23.4022 40.4908 23.4403V23.6848L47.936 23.7989L47.9034 23.4729C47.9034 23.4729 47.8382 23.0653 47.6426 21.598C47.2459 18.821 44.7623 13.7344 44.6536 13.517L44.5775 13.3594L38.7301 13.5713ZM15.2315 4.1643C14.6555 4.1643 11.9274 5.82724 10.7699 6.81087C9.37321 7.92493 6.16146 11.028 6.34079 11.7019C6.42231 11.9573 6.65056 12.0388 7.74831 12.0388C9.00367 12.0388 10.8514 11.9084 10.8677 11.9084H10.9981L11.0742 11.8051C11.5191 11.1615 11.9221 10.4898 12.2806 9.79438C12.9016 8.60289 13.6177 7.4634 14.4218 6.38699C15.8185 4.58819 15.6174 4.38711 15.5087 4.25125L15.4272 4.16973L15.2315 4.1643ZM26.4156 2.17529C26.304 2.17419 26.1926 2.18697 26.0841 2.21333C25.8396 2.29485 25.5842 2.37637 25.4863 11.4519V11.6801L25.7092 11.7236C27.396 11.9108 29.094 11.978 30.7904 11.9247C31.3338 11.9247 31.8772 11.9519 32.3772 11.9519C34.3608 11.9519 35.8335 11.8269 35.8498 11.8269L36.2302 11.7943L36.0726 11.4465C35.404 9.94952 34.598 8.51777 33.6652 7.16955C32.3872 5.44512 30.7331 4.03451 28.8285 3.0448C27.6438 2.43071 26.921 2.17529 26.4156 2.17529ZM32.5185 3.75128C34.0617 4.9885 35.3878 6.47436 36.4422 8.14775C37.0182 9.20746 38.2355 11.7508 38.2464 11.778L38.3225 11.9356L43.5722 11.8214L43.2515 11.3975C42.2679 10.0994 41.1986 8.86843 40.0507 7.71299C38.931 6.6157 37.6477 5.69903 36.2465 4.99577C35.9531 4.8273 35.6325 4.6534 35.339 4.4958C35.0455 4.3382 34.6542 4.12626 34.4967 4.023H34.464H34.4314C34.1978 3.94692 33.1761 3.47956 32.8011 3.31109L32.5185 3.75128ZM22.9213 2.17529C22.3778 2.17529 21.8018 2.3655 20.6062 2.92525C18.6612 3.9525 16.9713 5.40285 15.6609 7.16955C14.7231 8.50675 13.9495 9.95181 13.3567 11.4736L13.2154 11.8432H23.7473L23.9538 2.37637L23.3506 2.2242C23.2092 2.19532 23.0655 2.17895 22.9213 2.17529Z" fill="#222222"/>
</g>
</g>
</g>
<defs>
<clipPath id="clip0_3926_4968">
<rect width="48.91" height="50" fill="white" transform="translate(0.378662 0.102722)"/>
</clipPath>
<clipPath id="clip1_3926_4968">
<rect width="48.91" height="50" fill="white" transform="translate(0.378662 0.102722)"/>
</clipPath>
<clipPath id="clip2_3926_4968">
<rect width="48.91" height="49.9969" fill="white" transform="translate(0.378662 0.104675)"/>
</clipPath>
</defs>
</svg>
