<svg width="55" height="36" viewBox="0 0 55 36" fill="none" xmlns="http://www.w3.org/2000/svg">
<g clip-path="url(#clip0_3926_5913)">
<g clip-path="url(#clip1_3926_5913)">
<path d="M49.736 35.2701H5.23996C2.79784 35.2885 0.801407 33.3271 0.78299 30.8868V4.66065C0.801407 2.21853 2.79784 0.258933 5.23996 0.27735H49.736C52.1781 0.258933 54.1746 2.21853 54.193 4.66065V30.9052C54.1635 33.3363 52.1708 35.2885 49.736 35.2701Z" fill="#303234"/>
<path fill-rule="evenodd" clip-rule="evenodd" d="M16.0577 27.5718V25.3912H38.9135V27.57H41.0904V29.745H13.8826V27.5718H16.0577ZM15.5162 11.7882L27.4874 5.80261L39.4586 11.7882V12.8785H15.5162V11.7882ZM28.574 13.9614H31.2943V24.3046H28.574V13.9614ZM23.6806 13.9614H26.399V24.3046H23.6732V13.9614H23.6806ZM18.7816 13.9614H21.5018V24.3046H18.7797L18.7816 13.9614ZM33.473 13.9614H36.1932V24.3046H33.473V13.9614Z" fill="white"/>
</g>
</g>
<defs>
<clipPath id="clip0_3926_5913">
<rect width="53.41" height="35" fill="white" transform="translate(0.78299 0.273315)"/>
</clipPath>
<clipPath id="clip1_3926_5913">
<rect width="53.41" height="34.9928" fill="white" transform="translate(0.78299 0.277222)"/>
</clipPath>
</defs>
</svg>
