<svg width="57" height="36" viewBox="0 0 57 36" fill="none" xmlns="http://www.w3.org/2000/svg">
<g clip-path="url(#clip0_3926_5827)">
<path d="M52.9537 0.127563H4.28225C2.34966 0.127563 0.78299 1.69423 0.78299 3.62682V31.6209C0.78299 33.5535 2.34966 35.1201 4.28225 35.1201H52.9537C54.8863 35.1201 56.453 33.5535 56.453 31.6209V3.62682C56.453 1.69423 54.8863 0.127563 52.9537 0.127563Z" fill="black"/>
<path d="M6.1089 31.8053V29.5285H6.5562L7.48805 31.0489V29.5285H7.91516V31.8053H7.45389L6.53601 30.3205V31.8053H6.1089ZM10.456 31.8053H9.95593L9.75713 31.2881H8.84702L8.65909 31.8053H8.17142L9.05824 29.5285H9.54436L10.456 31.8053ZM9.60959 30.9045L9.29586 30.0596L8.98835 30.9045H9.60959ZM10.6952 31.8053V29.5285H11.3832L11.7963 31.0816L12.2048 29.5285H12.8944V31.8053H12.4673V30.013L12.0153 31.8053H11.5727L11.1223 30.013V31.8053H10.6952ZM13.351 31.8053V29.5285H15.0392V29.9136H13.8107V30.4184H14.9538V30.802H13.8107V31.4217H15.0827V31.8053H13.351ZM16.2413 31.0645L16.6886 31.021C16.7155 31.1711 16.7699 31.2814 16.8517 31.3518C16.9345 31.4222 17.0458 31.4574 17.1856 31.4574C17.3337 31.4574 17.445 31.4263 17.5195 31.3642C17.5951 31.3011 17.6329 31.2275 17.6329 31.1437C17.6329 31.0898 17.6168 31.0443 17.5847 31.007C17.5537 30.9687 17.4988 30.9356 17.4201 30.9076C17.3663 30.889 17.2436 30.8558 17.052 30.8082C16.8056 30.7471 16.6327 30.6721 16.5333 30.583C16.3935 30.4577 16.3236 30.305 16.3236 30.1248C16.3236 30.0089 16.3562 29.9007 16.4215 29.8002C16.4877 29.6988 16.5825 29.6216 16.7057 29.5688C16.8299 29.516 16.9796 29.4896 17.1545 29.4896C17.4403 29.4896 17.6552 29.5523 17.7991 29.6776C17.944 29.8028 18.0201 29.9701 18.0274 30.1792L17.5677 30.1994C17.548 30.0824 17.5055 29.9985 17.4403 29.9478C17.3761 29.896 17.2793 29.8701 17.1499 29.8701C17.0163 29.8701 16.9117 29.8976 16.8362 29.9525C16.7875 29.9877 16.7632 30.0348 16.7632 30.0938C16.7632 30.1476 16.7859 30.1937 16.8315 30.232C16.8895 30.2807 17.0303 30.3314 17.2539 30.3842C17.4776 30.437 17.6427 30.4919 17.7494 30.5488C17.8571 30.6048 17.9409 30.6819 18.001 30.7803C18.0621 30.8776 18.0926 30.9982 18.0926 31.1421C18.0926 31.2726 18.0564 31.3948 17.9839 31.5087C17.9114 31.6226 17.8089 31.7075 17.6764 31.7634C17.5438 31.8182 17.3787 31.8457 17.1809 31.8457C16.8931 31.8457 16.672 31.7794 16.5178 31.6469C16.3635 31.5133 16.2713 31.3192 16.2413 31.0645ZM18.4762 29.5285H18.9359V30.7616C18.9359 30.9573 18.9416 31.0841 18.953 31.1421C18.9727 31.2353 19.0193 31.3104 19.0928 31.3673C19.1674 31.4232 19.2688 31.4512 19.3972 31.4512C19.5277 31.4512 19.626 31.4248 19.6923 31.372C19.7586 31.3181 19.7984 31.2524 19.8119 31.1747C19.8253 31.0971 19.8321 30.9682 19.8321 30.788V29.5285H20.2918V30.7243C20.2918 30.9977 20.2794 31.1908 20.2545 31.3036C20.2297 31.4165 20.1836 31.5118 20.1163 31.5894C20.05 31.6671 19.961 31.7292 19.8492 31.7758C19.7373 31.8213 19.5913 31.8441 19.4112 31.8441C19.1938 31.8441 19.0286 31.8193 18.9157 31.7696C18.8039 31.7188 18.7154 31.6536 18.6502 31.5739C18.5849 31.4931 18.542 31.4087 18.5213 31.3207C18.4912 31.1903 18.4762 30.9977 18.4762 30.743V29.5285ZM20.7795 31.8053V29.5285H21.747C21.9904 29.5285 22.1669 29.5492 22.2767 29.5906C22.3874 29.631 22.476 29.7034 22.5422 29.808C22.6085 29.9126 22.6416 30.0322 22.6416 30.1668C22.6416 30.3376 22.5914 30.479 22.491 30.5908C22.3905 30.7016 22.2404 30.7715 22.0406 30.8004C22.14 30.8584 22.2218 30.9221 22.286 30.9915C22.3512 31.0608 22.4387 31.1841 22.5484 31.3611L22.8264 31.8053H22.2767L21.9443 31.3099C21.8263 31.1328 21.7455 31.0215 21.702 30.9759C21.6585 30.9294 21.6124 30.8978 21.5638 30.8812C21.5151 30.8636 21.438 30.8548 21.3324 30.8548H21.2392V31.8053H20.7795ZM21.2392 30.4914H21.5793C21.7999 30.4914 21.9376 30.4821 21.9924 30.4634C22.0473 30.4448 22.0903 30.4127 22.1213 30.3671C22.1524 30.3216 22.1679 30.2646 22.1679 30.1963C22.1679 30.1197 22.1472 30.0581 22.1058 30.0115C22.0654 29.9638 22.008 29.9338 21.9334 29.9214C21.8961 29.9162 21.7843 29.9136 21.5979 29.9136H21.2392V30.4914ZM23.0812 31.8053V29.5285H23.5284L24.4603 31.0489V29.5285H24.8874V31.8053H24.4261L23.5083 30.3205V31.8053H23.0812ZM27.4283 31.8053H26.9282L26.7294 31.2881H25.8193L25.6313 31.8053H25.1437L26.0305 29.5285H26.5166L27.4283 31.8053ZM26.5818 30.9045L26.2681 30.0596L25.9606 30.9045H26.5818ZM27.6675 31.8053V29.5285H28.3555L28.7686 31.0816L29.1771 29.5285H29.8666V31.8053H29.4395V30.013L28.9876 31.8053H28.545L28.0946 30.013V31.8053H27.6675ZM30.3233 31.8053V29.5285H32.0115V29.9136H30.783V30.4184H31.926V30.802H30.783V31.4217H32.055V31.8053H30.3233Z" fill="white"/>
<path d="M24.1377 25.7508C24.1377 25.4816 24.1651 25.2652 24.22 25.1016C24.2759 24.9369 24.3582 24.8101 24.4669 24.7211C24.5767 24.632 24.7144 24.5875 24.88 24.5875C25.0022 24.5875 25.1094 24.6123 25.2015 24.662C25.2937 24.7107 25.3698 24.7816 25.4298 24.8748C25.4899 24.967 25.537 25.0798 25.5712 25.2134C25.6053 25.3459 25.6224 25.5251 25.6224 25.7508C25.6224 26.0179 25.595 26.2338 25.5401 26.3984C25.4852 26.562 25.4029 26.6888 25.2932 26.7789C25.1844 26.868 25.0467 26.9125 24.88 26.9125C24.6605 26.9125 24.4881 26.8338 24.3629 26.6764C24.2127 26.4869 24.1377 26.1784 24.1377 25.7508ZM24.425 25.7508C24.425 26.1245 24.4685 26.3736 24.5554 26.4978C24.6435 26.621 24.7517 26.6826 24.88 26.6826C25.0084 26.6826 25.1161 26.6205 25.2031 26.4963C25.2911 26.372 25.3351 26.1235 25.3351 25.7508C25.3351 25.376 25.2911 25.1269 25.2031 25.0037C25.1161 24.8805 25.0074 24.8189 24.8769 24.8189C24.7485 24.8189 24.646 24.8733 24.5694 24.982C24.4731 25.1207 24.425 25.377 24.425 25.7508ZM26.9612 26.8737H26.6816V25.0923C26.6143 25.1564 26.5258 25.2206 26.4161 25.2848C26.3073 25.349 26.2095 25.3972 26.1225 25.4293V25.159C26.2789 25.0855 26.4155 24.9965 26.5325 24.8919C26.6495 24.7873 26.7324 24.6859 26.781 24.5875H26.9612V26.8737ZM27.5467 26.9125L28.2068 24.558H28.4304L27.7719 26.9125H27.5467ZM30.0332 26.605V26.8737H28.5283C28.5262 26.8064 28.5371 26.7416 28.5609 26.6795C28.5992 26.577 28.6603 26.4761 28.7441 26.3767C28.829 26.2773 28.9512 26.1623 29.1107 26.0319C29.3581 25.8289 29.5254 25.6685 29.6123 25.5504C29.6993 25.4313 29.7428 25.319 29.7428 25.2134C29.7428 25.1026 29.7029 25.0094 29.6232 24.9338C29.5445 24.8572 29.4415 24.8189 29.3141 24.8189C29.1795 24.8189 29.0719 24.8593 28.9911 24.9401C28.9103 25.0208 28.8694 25.1326 28.8684 25.2755L28.5811 25.246C28.6007 25.0317 28.6748 24.8686 28.8032 24.7568C28.9316 24.6439 29.1039 24.5875 29.3203 24.5875C29.5388 24.5875 29.7117 24.6481 29.8391 24.7692C29.9664 24.8904 30.0301 25.0405 30.0301 25.2196C30.0301 25.3107 30.0115 25.4003 29.9742 25.4883C29.9369 25.5763 29.8748 25.669 29.7878 25.7663C29.7019 25.8636 29.5585 25.9972 29.3576 26.167C29.1899 26.3078 29.0822 26.4036 29.0346 26.4543C28.9869 26.504 28.9476 26.5542 28.9165 26.605H30.0332ZM31.8037 26.605V26.8737H30.2988C30.2967 26.8064 30.3076 26.7416 30.3314 26.6795C30.3697 26.577 30.4308 26.4761 30.5147 26.3767C30.5996 26.2773 30.7218 26.1623 30.8812 26.0319C31.1287 25.8289 31.2959 25.6685 31.3829 25.5504C31.4698 25.4313 31.5133 25.319 31.5133 25.2134C31.5133 25.1026 31.4735 25.0094 31.3937 24.9338C31.315 24.8572 31.212 24.8189 31.0847 24.8189C30.9501 24.8189 30.8424 24.8593 30.7616 24.9401C30.6809 25.0208 30.64 25.1326 30.6389 25.2755L30.3516 25.246C30.3713 25.0317 30.4453 24.8686 30.5737 24.7568C30.7021 24.6439 30.8745 24.5875 31.0909 24.5875C31.3093 24.5875 31.4823 24.6481 31.6096 24.7692C31.737 24.8904 31.8006 25.0405 31.8006 25.2196C31.8006 25.3107 31.782 25.4003 31.7447 25.4883C31.7075 25.5763 31.6453 25.669 31.5584 25.7663C31.4724 25.8636 31.329 25.9972 31.1282 26.167C30.9604 26.3078 30.8527 26.4036 30.8051 26.4543C30.7575 26.504 30.7181 26.5542 30.6871 26.605H31.8037Z" fill="white"/>
<path d="M6.06426 20.2015C6.06426 19.8111 6.10404 19.4974 6.18361 19.2602C6.26469 19.0214 6.38404 18.8375 6.54168 18.7084C6.70083 18.5793 6.90051 18.5147 7.14072 18.5147C7.31788 18.5147 7.47327 18.5508 7.60689 18.6228C7.74051 18.6934 7.85086 18.7962 7.93794 18.9314C8.02502 19.065 8.09333 19.2286 8.14287 19.4223C8.19242 19.6145 8.21719 19.8742 8.21719 20.2015C8.21719 20.5888 8.17741 20.9019 8.09783 21.1406C8.01826 21.3778 7.8989 21.5617 7.73976 21.6923C7.58212 21.8215 7.38244 21.886 7.14072 21.886C6.82244 21.886 6.57246 21.7719 6.3908 21.5437C6.1731 21.269 6.06426 20.8216 6.06426 20.2015ZM6.48088 20.2015C6.48088 20.7435 6.54394 21.1046 6.67005 21.2847C6.79766 21.4634 6.95456 21.5527 7.14072 21.5527C7.32689 21.5527 7.48303 21.4626 7.60914 21.2825C7.73676 21.1023 7.80057 20.742 7.80057 20.2015C7.80057 19.658 7.73676 19.2969 7.60914 19.1183C7.48303 18.9396 7.32539 18.8503 7.13622 18.8503C6.95005 18.8503 6.80142 18.9291 6.69032 19.0867C6.55069 19.2879 6.48088 19.6595 6.48088 20.2015ZM8.63156 20.2015C8.63156 19.8111 8.67135 19.4974 8.75092 19.2602C8.83199 19.0214 8.95135 18.8375 9.10899 18.7084C9.26814 18.5793 9.46782 18.5147 9.70803 18.5147C9.88519 18.5147 10.0406 18.5508 10.1742 18.6228C10.3078 18.6934 10.4182 18.7962 10.5052 18.9314C10.5923 19.065 10.6606 19.2286 10.7102 19.4223C10.7597 19.6145 10.7845 19.8742 10.7845 20.2015C10.7845 20.5888 10.7447 20.9019 10.6651 21.1406C10.5856 21.3778 10.4662 21.5617 10.3071 21.6923C10.1494 21.8215 9.94975 21.886 9.70803 21.886C9.38975 21.886 9.13977 21.7719 8.95811 21.5437C8.74041 21.269 8.63156 20.8216 8.63156 20.2015ZM9.04819 20.2015C9.04819 20.7435 9.11125 21.1046 9.23736 21.2847C9.36497 21.4634 9.52186 21.5527 9.70803 21.5527C9.8942 21.5527 10.0503 21.4626 10.1765 21.2825C10.3041 21.1023 10.3679 20.742 10.3679 20.2015C10.3679 19.658 10.3041 19.2969 10.1765 19.1183C10.0503 18.9396 9.8927 18.8503 9.70353 18.8503C9.51736 18.8503 9.36873 18.9291 9.25763 19.0867C9.118 19.2879 9.04819 19.6595 9.04819 20.2015ZM11.1989 20.2015C11.1989 19.8111 11.2387 19.4974 11.3182 19.2602C11.3993 19.0214 11.5187 18.8375 11.6763 18.7084C11.8354 18.5793 12.0351 18.5147 12.2753 18.5147C12.4525 18.5147 12.6079 18.5508 12.7415 18.6228C12.8751 18.6934 12.9855 18.7962 13.0726 18.9314C13.1596 19.065 13.2279 19.2286 13.2775 19.4223C13.327 19.6145 13.3518 19.8742 13.3518 20.2015C13.3518 20.5888 13.312 20.9019 13.2325 21.1406C13.1529 21.3778 13.0335 21.5617 12.8744 21.6923C12.7167 21.8215 12.5171 21.886 12.2753 21.886C11.9571 21.886 11.7071 21.7719 11.5254 21.5437C11.3077 21.269 11.1989 20.8216 11.1989 20.2015ZM11.6155 20.2015C11.6155 20.7435 11.6786 21.1046 11.8047 21.2847C11.9323 21.4634 12.0892 21.5527 12.2753 21.5527C12.4615 21.5527 12.6176 21.4626 12.7438 21.2825C12.8714 21.1023 12.9352 20.742 12.9352 20.2015C12.9352 19.658 12.8714 19.2969 12.7438 19.1183C12.6176 18.9396 12.46 18.8503 12.2708 18.8503C12.0847 18.8503 11.936 18.9291 11.8249 19.0867C11.6853 19.2879 11.6155 19.6595 11.6155 20.2015ZM13.7662 20.2015C13.7662 19.8111 13.806 19.4974 13.8855 19.2602C13.9666 19.0214 14.086 18.8375 14.2436 18.7084C14.4028 18.5793 14.6024 18.5147 14.8426 18.5147C15.0198 18.5147 15.1752 18.5508 15.3088 18.6228C15.4424 18.6934 15.5528 18.7962 15.6399 18.9314C15.7269 19.065 15.7953 19.2286 15.8448 19.4223C15.8943 19.6145 15.9191 19.8742 15.9191 20.2015C15.9191 20.5888 15.8793 20.9019 15.7998 21.1406C15.7202 21.3778 15.6008 21.5617 15.4417 21.6923C15.284 21.8215 15.0844 21.886 14.8426 21.886C14.5244 21.886 14.2744 21.7719 14.0927 21.5437C13.875 21.269 13.7662 20.8216 13.7662 20.2015ZM14.1828 20.2015C14.1828 20.7435 14.2459 21.1046 14.372 21.2847C14.4996 21.4634 14.6565 21.5527 14.8426 21.5527C15.0288 21.5527 15.185 21.4626 15.3111 21.2825C15.4387 21.1023 15.5025 20.742 15.5025 20.2015C15.5025 19.658 15.4387 19.2969 15.3111 19.1183C15.185 18.9396 15.0273 18.8503 14.8381 18.8503C14.652 18.8503 14.5033 18.9291 14.3922 19.0867C14.2526 19.2879 14.1828 19.6595 14.1828 20.2015ZM17.6171 20.2015C17.6171 19.8111 17.6569 19.4974 17.7365 19.2602C17.8176 19.0214 17.9369 18.8375 18.0946 18.7084C18.2537 18.5793 18.4534 18.5147 18.6936 18.5147C18.8708 18.5147 19.0262 18.5508 19.1598 18.6228C19.2934 18.6934 19.4037 18.7962 19.4908 18.9314C19.5779 19.065 19.6462 19.2286 19.6958 19.4223C19.7453 19.6145 19.7701 19.8742 19.7701 20.2015C19.7701 20.5888 19.7303 20.9019 19.6507 21.1406C19.5712 21.3778 19.4518 21.5617 19.2926 21.6923C19.135 21.8215 18.9353 21.886 18.6936 21.886C18.3753 21.886 18.1254 21.7719 17.9437 21.5437C17.726 21.269 17.6171 20.8216 17.6171 20.2015ZM18.0338 20.2015C18.0338 20.7435 18.0968 21.1046 18.2229 21.2847C18.3506 21.4634 18.5074 21.5527 18.6936 21.5527C18.8798 21.5527 19.0359 21.4626 19.162 21.2825C19.2896 21.1023 19.3535 20.742 19.3535 20.2015C19.3535 19.658 19.2896 19.2969 19.162 19.1183C19.0359 18.9396 18.8783 18.8503 18.6891 18.8503C18.5029 18.8503 18.3543 18.9291 18.2432 19.0867C18.1036 19.2879 18.0338 19.6595 18.0338 20.2015ZM20.1845 20.2015C20.1845 19.8111 20.2242 19.4974 20.3038 19.2602C20.3849 19.0214 20.5042 18.8375 20.6619 18.7084C20.821 18.5793 21.0207 18.5147 21.2609 18.5147C21.4381 18.5147 21.5935 18.5508 21.7271 18.6228C21.8607 18.6934 21.9711 18.7962 22.0581 18.9314C22.1452 19.065 22.2135 19.2286 22.2631 19.4223C22.3126 19.6145 22.3374 19.8742 22.3374 20.2015C22.3374 20.5888 22.2976 20.9019 22.218 21.1406C22.1385 21.3778 22.0191 21.5617 21.86 21.6923C21.7023 21.8215 21.5026 21.886 21.2609 21.886C20.9426 21.886 20.6927 21.7719 20.511 21.5437C20.2933 21.269 20.1845 20.8216 20.1845 20.2015ZM20.6011 20.2015C20.6011 20.7435 20.6641 21.1046 20.7902 21.2847C20.9179 21.4634 21.0748 21.5527 21.2609 21.5527C21.4471 21.5527 21.6032 21.4626 21.7293 21.2825C21.857 21.1023 21.9208 20.742 21.9208 20.2015C21.9208 19.658 21.857 19.2969 21.7293 19.1183C21.6032 18.9396 21.4456 18.8503 21.2564 18.8503C21.0702 18.8503 20.9216 18.9291 20.8105 19.0867C20.6709 19.2879 20.6011 19.6595 20.6011 20.2015ZM22.7518 20.2015C22.7518 19.8111 22.7915 19.4974 22.8711 19.2602C22.9522 19.0214 23.0715 18.8375 23.2292 18.7084C23.3883 18.5793 23.588 18.5147 23.8282 18.5147C24.0054 18.5147 24.1608 18.5508 24.2944 18.6228C24.428 18.6934 24.5384 18.7962 24.6254 18.9314C24.7125 19.065 24.7808 19.2286 24.8304 19.4223C24.8799 19.6145 24.9047 19.8742 24.9047 20.2015C24.9047 20.5888 24.8649 20.9019 24.7853 21.1406C24.7058 21.3778 24.5864 21.5617 24.4273 21.6923C24.2696 21.8215 24.0699 21.886 23.8282 21.886C23.5099 21.886 23.26 21.7719 23.0783 21.5437C22.8606 21.269 22.7518 20.8216 22.7518 20.2015ZM23.1684 20.2015C23.1684 20.7435 23.2314 21.1046 23.3576 21.2847C23.4852 21.4634 23.6421 21.5527 23.8282 21.5527C24.0144 21.5527 24.1705 21.4626 24.2966 21.2825C24.4243 21.1023 24.4881 20.742 24.4881 20.2015C24.4881 19.658 24.4243 19.2969 24.2966 19.1183C24.1705 18.9396 24.0129 18.8503 23.8237 18.8503C23.6376 18.8503 23.4889 18.9291 23.3778 19.0867C23.2382 19.2879 23.1684 19.6595 23.1684 20.2015ZM25.3191 20.2015C25.3191 19.8111 25.3589 19.4974 25.4384 19.2602C25.5195 19.0214 25.6389 18.8375 25.7965 18.7084C25.9556 18.5793 26.1553 18.5147 26.3955 18.5147C26.5727 18.5147 26.7281 18.5508 26.8617 18.6228C26.9953 18.6934 27.1057 18.7962 27.1928 18.9314C27.2798 19.065 27.3481 19.2286 27.3977 19.4223C27.4472 19.6145 27.472 19.8742 27.472 20.2015C27.472 20.5888 27.4322 20.9019 27.3526 21.1406C27.2731 21.3778 27.1537 21.5617 26.9946 21.6923C26.8369 21.8215 26.6373 21.886 26.3955 21.886C26.0773 21.886 25.8273 21.7719 25.6456 21.5437C25.4279 21.269 25.3191 20.8216 25.3191 20.2015ZM25.7357 20.2015C25.7357 20.7435 25.7988 21.1046 25.9249 21.2847C26.0525 21.4634 26.2094 21.5527 26.3955 21.5527C26.5817 21.5527 26.7378 21.4626 26.864 21.2825C26.9916 21.1023 27.0554 20.742 27.0554 20.2015C27.0554 19.658 26.9916 19.2969 26.864 19.1183C26.7378 18.9396 26.5802 18.8503 26.391 18.8503C26.2049 18.8503 26.0562 18.9291 25.9451 19.0867C25.8055 19.2879 25.7357 19.6595 25.7357 20.2015ZM29.17 20.2015C29.17 19.8111 29.2098 19.4974 29.2894 19.2602C29.3705 19.0214 29.4898 18.8375 29.6475 18.7084C29.8066 18.5793 30.0063 18.5147 30.2465 18.5147C30.4237 18.5147 30.579 18.5508 30.7127 18.6228C30.8463 18.6934 30.9566 18.7962 31.0437 18.9314C31.1308 19.065 31.1991 19.2286 31.2487 19.4223C31.2982 19.6145 31.323 19.8742 31.323 20.2015C31.323 20.5888 31.2832 20.9019 31.2036 21.1406C31.124 21.3778 31.0047 21.5617 30.8455 21.6923C30.6879 21.8215 30.4882 21.886 30.2465 21.886C29.9282 21.886 29.6782 21.7719 29.4966 21.5437C29.2789 21.269 29.17 20.8216 29.17 20.2015ZM29.5867 20.2015C29.5867 20.7435 29.6497 21.1046 29.7758 21.2847C29.9034 21.4634 30.0603 21.5527 30.2465 21.5527C30.4327 21.5527 30.5888 21.4626 30.7149 21.2825C30.8425 21.1023 30.9063 20.742 30.9063 20.2015C30.9063 19.658 30.8425 19.2969 30.7149 19.1183C30.5888 18.9396 30.4312 18.8503 30.242 18.8503C30.0558 18.8503 29.9072 18.9291 29.7961 19.0867C29.6565 19.2879 29.5867 19.6595 29.5867 20.2015ZM31.7373 20.2015C31.7373 19.8111 31.7771 19.4974 31.8567 19.2602C31.9378 19.0214 32.0571 18.8375 32.2148 18.7084C32.3739 18.5793 32.5736 18.5147 32.8138 18.5147C32.991 18.5147 33.1464 18.5508 33.28 18.6228C33.4136 18.6934 33.5239 18.7962 33.611 18.9314C33.6981 19.065 33.7664 19.2286 33.816 19.4223C33.8655 19.6145 33.8903 19.8742 33.8903 20.2015C33.8903 20.5888 33.8505 20.9019 33.7709 21.1406C33.6913 21.3778 33.572 21.5617 33.4128 21.6923C33.2552 21.8215 33.0555 21.886 32.8138 21.886C32.4955 21.886 32.2455 21.7719 32.0639 21.5437C31.8462 21.269 31.7373 20.8216 31.7373 20.2015ZM32.154 20.2015C32.154 20.7435 32.217 21.1046 32.3431 21.2847C32.4707 21.4634 32.6276 21.5527 32.8138 21.5527C33 21.5527 33.1561 21.4626 33.2822 21.2825C33.4098 21.1023 33.4737 20.742 33.4737 20.2015C33.4737 19.658 33.4098 19.2969 33.2822 19.1183C33.1561 18.9396 32.9985 18.8503 32.8093 18.8503C32.6231 18.8503 32.4745 18.9291 32.3634 19.0867C32.2238 19.2879 32.154 19.6595 32.154 20.2015ZM34.3046 20.2015C34.3046 19.8111 34.3444 19.4974 34.424 19.2602C34.5051 19.0214 34.6244 18.8375 34.7821 18.7084C34.9412 18.5793 35.1409 18.5147 35.3811 18.5147C35.5583 18.5147 35.7137 18.5508 35.8473 18.6228C35.9809 18.6934 36.0913 18.7962 36.1783 18.9314C36.2654 19.065 36.3337 19.2286 36.3833 19.4223C36.4328 19.6145 36.4576 19.8742 36.4576 20.2015C36.4576 20.5888 36.4178 20.9019 36.3382 21.1406C36.2587 21.3778 36.1393 21.5617 35.9802 21.6923C35.8225 21.8215 35.6228 21.886 35.3811 21.886C35.0628 21.886 34.8129 21.7719 34.6312 21.5437C34.4135 21.269 34.3046 20.8216 34.3046 20.2015ZM34.7213 20.2015C34.7213 20.7435 34.7843 21.1046 34.9104 21.2847C35.0381 21.4634 35.1949 21.5527 35.3811 21.5527C35.5673 21.5527 35.7234 21.4626 35.8495 21.2825C35.9772 21.1023 36.041 20.742 36.041 20.2015C36.041 19.658 35.9772 19.2969 35.8495 19.1183C35.7234 18.9396 35.5658 18.8503 35.3766 18.8503C35.1904 18.8503 35.0418 18.9291 34.9307 19.0867C34.7911 19.2879 34.7213 19.6595 34.7213 20.2015ZM36.872 20.2015C36.872 19.8111 36.9117 19.4974 36.9913 19.2602C37.0724 19.0214 37.1917 18.8375 37.3494 18.7084C37.5085 18.5793 37.7082 18.5147 37.9484 18.5147C38.1256 18.5147 38.281 18.5508 38.4146 18.6228C38.5482 18.6934 38.6586 18.7962 38.7456 18.9314C38.8327 19.065 38.901 19.2286 38.9506 19.4223C39.0001 19.6145 39.0249 19.8742 39.0249 20.2015C39.0249 20.5888 38.9851 20.9019 38.9055 21.1406C38.826 21.3778 38.7066 21.5617 38.5475 21.6923C38.3898 21.8215 38.1901 21.886 37.9484 21.886C37.6301 21.886 37.3802 21.7719 37.1985 21.5437C36.9808 21.269 36.872 20.8216 36.872 20.2015ZM37.2886 20.2015C37.2886 20.7435 37.3516 21.1046 37.4778 21.2847C37.6054 21.4634 37.7623 21.5527 37.9484 21.5527C38.1346 21.5527 38.2907 21.4626 38.4168 21.2825C38.5445 21.1023 38.6083 20.742 38.6083 20.2015C38.6083 19.658 38.5445 19.2969 38.4168 19.1183C38.2907 18.9396 38.1331 18.8503 37.9439 18.8503C37.7578 18.8503 37.6091 18.9291 37.498 19.0867C37.3584 19.2879 37.2886 19.6595 37.2886 20.2015ZM40.7229 20.2015C40.7229 19.8111 40.7627 19.4974 40.8423 19.2602C40.9234 19.0214 41.0427 18.8375 41.2003 18.7084C41.3595 18.5793 41.5592 18.5147 41.7994 18.5147C41.9765 18.5147 42.1319 18.5508 42.2656 18.6228C42.3992 18.6934 42.5095 18.7962 42.5966 18.9314C42.6837 19.065 42.752 19.2286 42.8015 19.4223C42.8511 19.6145 42.8759 19.8742 42.8759 20.2015C42.8759 20.5888 42.8361 20.9019 42.7565 21.1406C42.6769 21.3778 42.5576 21.5617 42.3984 21.6923C42.2408 21.8215 42.0411 21.886 41.7994 21.886C41.4811 21.886 41.2311 21.7719 41.0495 21.5437C40.8318 21.269 40.7229 20.8216 40.7229 20.2015ZM41.1395 20.2015C41.1395 20.7435 41.2026 21.1046 41.3287 21.2847C41.4563 21.4634 41.6132 21.5527 41.7994 21.5527C41.9856 21.5527 42.1417 21.4626 42.2678 21.2825C42.3954 21.1023 42.4592 20.742 42.4592 20.2015C42.4592 19.658 42.3954 19.2969 42.2678 19.1183C42.1417 18.9396 41.9841 18.8503 41.7949 18.8503C41.6087 18.8503 41.4601 18.9291 41.349 19.0867C41.2094 19.2879 41.1395 19.6595 41.1395 20.2015ZM43.2902 20.2015C43.2902 19.8111 43.33 19.4974 43.4096 19.2602C43.4907 19.0214 43.61 18.8375 43.7677 18.7084C43.9268 18.5793 44.1265 18.5147 44.3667 18.5147C44.5439 18.5147 44.6992 18.5508 44.8329 18.6228C44.9665 18.6934 45.0768 18.7962 45.1639 18.9314C45.251 19.065 45.3193 19.2286 45.3688 19.4223C45.4184 19.6145 45.4432 19.8742 45.4432 20.2015C45.4432 20.5888 45.4034 20.9019 45.3238 21.1406C45.2442 21.3778 45.1249 21.5617 44.9657 21.6923C44.8081 21.8215 44.6084 21.886 44.3667 21.886C44.0484 21.886 43.7984 21.7719 43.6168 21.5437C43.3991 21.269 43.2902 20.8216 43.2902 20.2015ZM43.7069 20.2015C43.7069 20.7435 43.7699 21.1046 43.896 21.2847C44.0236 21.4634 44.1805 21.5527 44.3667 21.5527C44.5529 21.5527 44.709 21.4626 44.8351 21.2825C44.9627 21.1023 45.0265 20.742 45.0265 20.2015C45.0265 19.658 44.9627 19.2969 44.8351 19.1183C44.709 18.9396 44.5514 18.8503 44.3622 18.8503C44.176 18.8503 44.0274 18.9291 43.9163 19.0867C43.7767 19.2879 43.7069 19.6595 43.7069 20.2015ZM45.8575 20.2015C45.8575 19.8111 45.8973 19.4974 45.9769 19.2602C46.058 19.0214 46.1773 18.8375 46.335 18.7084C46.4941 18.5793 46.6938 18.5147 46.934 18.5147C47.1112 18.5147 47.2666 18.5508 47.4002 18.6228C47.5338 18.6934 47.6441 18.7962 47.7312 18.9314C47.8183 19.065 47.8866 19.2286 47.9362 19.4223C47.9857 19.6145 48.0105 19.8742 48.0105 20.2015C48.0105 20.5888 47.9707 20.9019 47.8911 21.1406C47.8115 21.3778 47.6922 21.5617 47.533 21.6923C47.3754 21.8215 47.1757 21.886 46.934 21.886C46.6157 21.886 46.3657 21.7719 46.1841 21.5437C45.9664 21.269 45.8575 20.8216 45.8575 20.2015ZM46.2742 20.2015C46.2742 20.7435 46.3372 21.1046 46.4633 21.2847C46.5909 21.4634 46.7478 21.5527 46.934 21.5527C47.1202 21.5527 47.2763 21.4626 47.4024 21.2825C47.53 21.1023 47.5938 20.742 47.5938 20.2015C47.5938 19.658 47.53 19.2969 47.4024 19.1183C47.2763 18.9396 47.1187 18.8503 46.9295 18.8503C46.7433 18.8503 46.5947 18.9291 46.4836 19.0867C46.344 19.2879 46.2742 19.6595 46.2742 20.2015ZM48.4248 20.2015C48.4248 19.8111 48.4646 19.4974 48.5442 19.2602C48.6253 19.0214 48.7446 18.8375 48.9023 18.7084C49.0614 18.5793 49.2611 18.5147 49.5013 18.5147C49.6785 18.5147 49.8339 18.5508 49.9675 18.6228C50.1011 18.6934 50.2114 18.7962 50.2985 18.9314C50.3856 19.065 50.4539 19.2286 50.5035 19.4223C50.553 19.6145 50.5778 19.8742 50.5778 20.2015C50.5778 20.5888 50.538 20.9019 50.4584 21.1406C50.3789 21.3778 50.2595 21.5617 50.1003 21.6923C49.9427 21.8215 49.743 21.886 49.5013 21.886C49.183 21.886 48.9331 21.7719 48.7514 21.5437C48.5337 21.269 48.4248 20.8216 48.4248 20.2015ZM48.8415 20.2015C48.8415 20.7435 48.9045 21.1046 49.0306 21.2847C49.1583 21.4634 49.3151 21.5527 49.5013 21.5527C49.6875 21.5527 49.8436 21.4626 49.9697 21.2825C50.0973 21.1023 50.1612 20.742 50.1612 20.2015C50.1612 19.658 50.0973 19.2969 49.9697 19.1183C49.8436 18.9396 49.686 18.8503 49.4968 18.8503C49.3106 18.8503 49.162 18.9291 49.0509 19.0867C48.9113 19.2879 48.8415 19.6595 48.8415 20.2015Z" fill="white"/>
<path d="M18.2791 24.6227H23.2099V27.0085H18.2791V24.6227Z" fill="#979797"/>
<path d="M6.03299 24.6227H13.1906V27.0085H6.03299V24.6227Z" fill="#979797"/>
<path d="M14.463 8.55725H7.14639C6.53148 8.55725 6.03299 9.05574 6.03299 9.67065V15.3967C6.03299 16.0116 6.53148 16.5101 7.14639 16.5101H14.463C15.0779 16.5101 15.5764 16.0116 15.5764 15.3967V9.67065C15.5764 9.05574 15.0779 8.55725 14.463 8.55725Z" fill="#F0B322"/>
<path fill-rule="evenodd" clip-rule="evenodd" d="M7.94055 9.98914H13.6666C13.8353 9.98914 13.9972 10.0562 14.1165 10.1755C14.2358 10.2948 14.3028 10.4566 14.3028 10.6254V14.4427C14.3028 14.6115 14.2358 14.7733 14.1165 14.8926C13.9972 15.0119 13.8353 15.079 13.6666 15.079H7.94055C7.77181 15.079 7.60998 15.0119 7.49067 14.8926C7.37135 14.7733 7.30432 14.6115 7.30432 14.4427V10.6254C7.30432 10.4566 7.37135 10.2948 7.49067 10.1755C7.60998 10.0562 7.77181 9.98914 7.94055 9.98914ZM8.09961 10.3073H13.5075C13.6341 10.3073 13.7555 10.3575 13.845 10.447C13.9344 10.5365 13.9847 10.6579 13.9847 10.7844V14.2837C13.9847 14.4102 13.9344 14.5316 13.845 14.6211C13.7555 14.7106 13.6341 14.7608 13.5075 14.7608H8.09961C7.97305 14.7608 7.85168 14.7106 7.7622 14.6211C7.67271 14.5316 7.62244 14.4102 7.62244 14.2837V10.7844C7.62244 10.6579 7.67271 10.5365 7.7622 10.447C7.85168 10.3575 7.97305 10.3073 8.09961 10.3073Z" fill="black"/>
<path fill-rule="evenodd" clip-rule="evenodd" d="M7.30432 11.2616H8.89489C9.06363 11.2616 9.22546 11.3286 9.34477 11.4479C9.46409 11.5673 9.53112 11.7291 9.53112 11.8978V13.1703C9.53112 13.339 9.46409 13.5008 9.34477 13.6202C9.22546 13.7395 9.06363 13.8065 8.89489 13.8065H7.30432V11.2616ZM7.62244 11.5797H8.73584C8.86239 11.5797 8.98376 11.63 9.07325 11.7195C9.16273 11.809 9.21301 11.9303 9.21301 12.0569V13.0112C9.21301 13.1378 9.16273 13.2591 9.07325 13.3486C8.98376 13.4381 8.86239 13.4884 8.73584 13.4884H7.62244V11.5797Z" fill="black"/>
<path fill-rule="evenodd" clip-rule="evenodd" d="M14.3028 11.2616H12.7123C12.5435 11.2616 12.3817 11.3286 12.2624 11.4479C12.1431 11.5673 12.076 11.7291 12.076 11.8978V13.1703C12.076 13.339 12.1431 13.5008 12.2624 13.6202C12.3817 13.7395 12.5435 13.8065 12.7123 13.8065H14.3028V11.2616ZM13.9847 11.5797H12.8713C12.7448 11.5797 12.6234 11.63 12.5339 11.7195C12.4444 11.809 12.3942 11.9303 12.3942 12.0569V13.0112C12.3942 13.1378 12.4444 13.2591 12.5339 13.3486C12.6234 13.4381 12.7448 13.4884 12.8713 13.4884H13.9847V11.5797Z" fill="black"/>
<path fill-rule="evenodd" clip-rule="evenodd" d="M10.3255 10.4664H11.2798C11.4485 10.4664 11.6104 10.5335 11.7297 10.6528C11.849 10.7721 11.916 10.9339 11.916 11.1027V13.9657C11.916 14.1344 11.849 14.2963 11.7297 14.4156C11.6104 14.5349 11.4485 14.6019 11.2798 14.6019H10.3255C10.1567 14.6019 9.9949 14.5349 9.87559 14.4156C9.75627 14.2963 9.68924 14.1344 9.68924 13.9657V11.1027C9.68924 10.9339 9.75627 10.7721 9.87559 10.6528C9.9949 10.5335 10.1567 10.4664 10.3255 10.4664ZM10.4845 10.7845H11.1208C11.2473 10.7845 11.3687 10.8348 11.4582 10.9243C11.5477 11.0138 11.5979 11.1352 11.5979 11.2617V13.8066C11.5979 13.9332 11.5477 14.0546 11.4582 14.144C11.3687 14.2335 11.2473 14.2838 11.1208 14.2838H10.4845C10.358 14.2838 10.2366 14.2335 10.1471 14.144C10.0576 14.0546 10.0074 13.9332 10.0074 13.8066V11.2617C10.0074 11.1352 10.0576 11.0138 10.1471 10.9243C10.2366 10.8348 10.358 10.7845 10.4845 10.7845Z" fill="black"/>
</g>
<defs>
<clipPath id="clip0_3926_5827">
<rect width="55.67" height="34.9926" fill="white" transform="translate(0.78299 0.127563)"/>
</clipPath>
</defs>
</svg>
