<svg width="103" height="36" viewBox="0 0 103 36" fill="none" xmlns="http://www.w3.org/2000/svg">
<g clip-path="url(#clip0_3926_5984)">
<g clip-path="url(#clip1_3926_5984)">
<g clip-path="url(#clip2_3926_5984)">
<mask id="mask0_3926_5984" style="mask-type:luminance" maskUnits="userSpaceOnUse" x="0" y="0" width="103" height="36">
<path d="M102.953 0.805664H0.78299V35.8006H102.953V0.805664Z" fill="white"/>
</mask>
<g mask="url(#mask0_3926_5984)">
<mask id="mask1_3926_5984" style="mask-type:luminance" maskUnits="userSpaceOnUse" x="-496" y="-545" width="1053" height="1049">
<path d="M556.864 -544.911H-495.736V503.211H556.864V-544.911Z" fill="white"/>
</mask>
<g mask="url(#mask1_3926_5984)">
<path d="M15.1917 27.4202C12.3486 27.4202 9.95827 25.3943 9.31147 22.7476C9.31147 22.7476 9.1246 21.8725 9.1246 21.2963C9.1246 20.7201 9.30149 19.836 9.30149 19.836C9.95296 17.1958 12.3403 15.2298 15.1787 15.2298C18.5171 15.2298 21.2564 17.9436 21.2564 21.2818V22.75H12.3871C12.9108 23.7736 13.9702 24.3494 15.1917 24.3494H23.1648L23.1757 15.6922C23.1757 14.4015 22.1198 13.3455 20.829 13.3455H9.52842C8.2377 13.3455 7.18164 14.3695 7.18164 15.6602V26.9608C7.18164 28.2515 8.2377 29.3395 9.52842 29.3395H20.829C21.9873 29.3395 22.9536 28.5078 23.1403 27.4202H15.1917Z" fill="#C8036F"/>
</g>
<mask id="mask2_3926_5984" style="mask-type:luminance" maskUnits="userSpaceOnUse" x="-496" y="-545" width="1053" height="1049">
<path d="M556.864 -544.911H-495.736V503.211H556.864V-544.911Z" fill="white"/>
</mask>
<g mask="url(#mask2_3926_5984)">
<path d="M15.1779 18.1023C13.9611 18.1023 12.9028 18.8472 12.377 19.8069H17.979C17.4531 18.8472 16.395 18.1023 15.1779 18.1023Z" fill="#C8036F"/>
</g>
<mask id="mask3_3926_5984" style="mask-type:luminance" maskUnits="userSpaceOnUse" x="-496" y="-545" width="1053" height="1049">
<path d="M556.864 -544.911H-495.736V503.211H556.864V-544.911Z" fill="white"/>
</mask>
<g mask="url(#mask3_3926_5984)">
<path d="M20.2951 9.67043C20.2951 6.91235 18.003 4.67651 15.1756 4.67651C12.395 4.67651 10.1335 6.83923 10.0592 9.5341C10.058 9.54549 10.059 9.55656 10.059 9.56826V11.069C10.059 11.2485 10.2051 11.426 10.3891 11.426H12.2727C12.4567 11.426 12.618 11.2485 12.618 11.069V9.67043C12.618 8.29315 13.7651 7.17261 15.1771 7.17261C16.589 7.17261 17.7361 8.29315 17.7361 9.67043V11.069C17.7361 11.2485 17.8854 11.426 18.0694 11.426H19.9529C20.1369 11.426 20.2951 11.2485 20.2951 11.069V9.67043Z" fill="#C8036F"/>
</g>
<mask id="mask4_3926_5984" style="mask-type:luminance" maskUnits="userSpaceOnUse" x="-496" y="-545" width="1053" height="1049">
<path d="M556.864 -544.911H-495.736V503.211H556.864V-544.911Z" fill="white"/>
</mask>
<g mask="url(#mask4_3926_5984)">
<path d="M43.1245 24.3489C41.903 24.3489 40.8437 23.7731 40.3199 22.7495H49.213V21.2813C49.213 17.9431 46.4618 15.2292 43.1235 15.2292C40.2851 15.2292 37.8918 17.1953 37.2404 19.8355C37.2404 19.8355 37.0605 20.7196 37.0605 21.2958C37.0605 21.872 37.2459 22.7471 37.2459 22.7471C37.8927 25.3938 40.2815 27.4197 43.1246 27.4197H49.213V24.3489H43.1245ZM43.1116 18.102C44.3286 18.102 45.3868 18.8469 45.9127 19.8066H40.3107C40.8366 18.8469 41.8948 18.102 43.1116 18.102Z" fill="#71706F"/>
</g>
<mask id="mask5_3926_5984" style="mask-type:luminance" maskUnits="userSpaceOnUse" x="-496" y="-545" width="1053" height="1049">
<path d="M556.864 -544.911H-495.736V503.211H556.864V-544.911Z" fill="white"/>
</mask>
<g mask="url(#mask5_3926_5984)">
<path d="M93.6658 24.3489C92.4442 24.3489 91.385 23.7731 90.8611 22.7495H99.7541V21.2813C99.7541 17.9431 97.0029 15.2292 93.6646 15.2292C90.8262 15.2292 88.433 17.1953 87.7815 19.8355C87.7815 19.8355 87.6016 20.7196 87.6016 21.2958C87.6016 21.872 87.787 22.7471 87.787 22.7471C88.4338 25.3938 90.8226 27.4197 93.6657 27.4197H99.754V24.3489H93.6658ZM93.6529 18.102C94.8698 18.102 95.9281 18.8469 96.4539 19.8066H90.8519C91.3778 18.8469 92.436 18.102 93.6529 18.102Z" fill="#71706F"/>
</g>
<mask id="mask6_3926_5984" style="mask-type:luminance" maskUnits="userSpaceOnUse" x="-496" y="-545" width="1053" height="1049">
<path d="M556.864 -544.911H-495.736V503.211H556.864V-544.911Z" fill="white"/>
</mask>
<g mask="url(#mask6_3926_5984)">
<path d="M32.644 19.8707H28.694C28.2561 19.8707 27.8998 19.5089 27.8998 19.071C27.8998 18.6331 28.2561 18.2713 28.694 18.2713H34.6912V15.2644H28.694C26.6018 15.2644 24.8995 16.9787 24.8995 19.071C24.8995 21.1633 26.6018 22.8776 28.694 22.8776H32.578C33.0159 22.8776 33.3722 23.2073 33.3722 23.6452C33.3722 24.0831 33.0159 24.349 32.578 24.349H24.7109V27.4199H32.644C34.6912 27.3901 36.3837 25.7213 36.3837 23.6475C36.3837 21.5738 34.6912 19.9004 32.644 19.8707Z" fill="#71706F"/>
</g>
<mask id="mask7_3926_5984" style="mask-type:luminance" maskUnits="userSpaceOnUse" x="-496" y="-545" width="1053" height="1049">
<path d="M556.864 -544.911H-495.736V503.211H556.864V-544.911Z" fill="white"/>
</mask>
<g mask="url(#mask7_3926_5984)">
<path d="M69.3883 15.2644L66.7809 23.4113C66.6308 23.8803 66.2613 24.219 65.8214 24.3561L65.8205 24.3535C65.6813 24.398 65.5399 24.4205 65.4002 24.4232C65.3923 24.4233 65.3843 24.4236 65.3763 24.4236C65.3683 24.4236 65.3603 24.4233 65.3523 24.4232C65.2125 24.4205 65.0711 24.398 64.9319 24.3535L64.9311 24.3561C64.4913 24.219 64.1216 23.8803 63.9715 23.4113L61.3642 15.2644H58.207L61.1078 24.3278C61.7099 26.2094 63.4585 27.4118 65.3368 27.4192C65.35 27.4194 65.3631 27.4198 65.3763 27.4199C65.3894 27.4198 65.4026 27.4194 65.4157 27.4192C67.2939 27.4118 69.0425 26.2094 69.6448 24.3278L72.5454 15.2644H69.3883Z" fill="#71706F"/>
</g>
<mask id="mask8_3926_5984" style="mask-type:luminance" maskUnits="userSpaceOnUse" x="-496" y="-545" width="1053" height="1049">
<path d="M556.864 -544.911H-495.736V503.211H556.864V-544.911Z" fill="white"/>
</mask>
<g mask="url(#mask8_3926_5984)">
<path d="M57.3112 15.2643C57.3112 15.2643 54.9901 15.2498 54.8864 15.2498C52.4324 15.2498 50.4277 17.2493 50.4277 19.7032V27.4198H53.4346V19.7032C53.4346 18.8965 54.0999 18.2712 54.9067 18.2712H58.2735L57.3112 15.2643Z" fill="#71706F"/>
</g>
<mask id="mask9_3926_5984" style="mask-type:luminance" maskUnits="userSpaceOnUse" x="-496" y="-545" width="1053" height="1049">
<path d="M556.864 -544.911H-495.736V503.211H556.864V-544.911Z" fill="white"/>
</mask>
<g mask="url(#mask9_3926_5984)">
<path d="M76.1475 15.2H73.1406V27.4194H76.1475V15.2Z" fill="#71706F"/>
</g>
<mask id="mask10_3926_5984" style="mask-type:luminance" maskUnits="userSpaceOnUse" x="-496" y="-545" width="1053" height="1049">
<path d="M556.864 -544.911H-495.736V503.211H556.864V-544.911Z" fill="white"/>
</mask>
<g mask="url(#mask10_3926_5984)">
<path d="M83.1501 24.3521C81.4187 24.3521 80.0153 22.9464 80.0153 21.2152C80.0153 19.4936 81.4031 18.0789 83.121 18.0789H87.2794V15.2H83.123C80.2845 15.2 77.8982 17.1805 77.2468 19.8206C77.2468 19.8206 77.0703 20.712 77.0703 21.2882C77.0703 21.8644 77.2575 22.7432 77.2575 22.7432C77.9042 25.3898 80.2948 27.4194 83.1379 27.4194H87.2794V24.3485C87.2794 24.3485 83.2186 24.3521 83.1501 24.3521Z" fill="#71706F"/>
</g>
</g>
</g>
</g>
</g>
<defs>
<clipPath id="clip0_3926_5984">
<rect width="102.17" height="35" fill="white" transform="translate(0.78299 0.802734)"/>
</clipPath>
<clipPath id="clip1_3926_5984">
<rect width="102.17" height="35" fill="white" transform="translate(0.78299 0.802734)"/>
</clipPath>
<clipPath id="clip2_3926_5984">
<rect width="102.17" height="34.995" fill="white" transform="translate(0.78299 0.805664)"/>
</clipPath>
</defs>
</svg>
