<svg width="55" height="36" viewBox="0 0 55 36" fill="none" xmlns="http://www.w3.org/2000/svg">
<g clip-path="url(#clip0_3926_5901)">
<g clip-path="url(#clip1_3926_5901)">
<path fill-rule="evenodd" clip-rule="evenodd" d="M0.78299 10.9373C0.78299 8.66462 2.63761 6.81921 4.92319 6.81921H50.0528C52.3402 6.81921 54.193 8.66462 54.193 10.9373V25.6711C54.193 27.9456 52.3402 29.791 50.0528 29.791H4.92319C2.63945 29.7874 0.78299 27.9419 0.78299 25.6656V10.9373Z" fill="#000268"/>
<path fill-rule="evenodd" clip-rule="evenodd" d="M2.48221 11.0805V25.527C2.48221 26.9488 3.64249 28.1017 5.07167 28.1017H28.701V8.50574H5.07351C3.64065 8.50574 2.48221 9.65866 2.48221 11.0805ZM34.8229 18.2337C34.8229 19.1509 34.368 19.7808 33.6147 19.7808C32.9517 19.7808 32.3955 19.1509 32.3955 18.3074C32.3955 17.4418 32.8835 16.8009 33.6147 16.8009C34.3919 16.8009 34.8229 17.4639 34.8229 18.2337ZM30.4027 23.5066H32.3955V20.3701H32.4176C32.7951 21.0571 33.5503 21.3094 34.2464 21.3094C35.9648 21.3094 36.8838 19.8913 36.8838 18.1895C36.8838 16.7898 36.009 15.2722 34.4122 15.2722C33.5042 15.2722 32.6625 15.6369 32.2629 16.4509H32.2389V15.4048H30.4009V23.5084L30.4027 23.5066ZM39.6077 19.3498C39.6077 18.7973 40.1418 18.5873 40.8232 18.5873C41.1363 18.5873 41.4126 18.6058 41.6704 18.6205C41.6704 19.2946 41.1916 19.9834 40.4365 19.9834C39.976 19.9834 39.6261 19.7495 39.6261 19.3498H39.6077ZM43.6411 21.1786C43.549 20.7366 43.5306 20.2762 43.5306 19.8158V17.6775C43.5306 15.9168 42.2598 15.2833 40.7864 15.2833C39.9392 15.2833 39.2025 15.4085 38.4842 15.6958L38.5211 17.0495C39.0736 16.7364 39.7182 16.6075 40.3628 16.6075C41.0811 16.6075 41.6704 16.8101 41.6888 17.602C41.431 17.5468 41.0811 17.5283 40.768 17.5283C39.6998 17.5283 37.7844 17.7309 37.7844 19.499C37.7844 20.7514 38.8157 21.3039 39.9576 21.3039C40.779 21.3039 41.3352 20.9724 41.7883 20.2541H41.8067C41.8067 20.5488 41.8399 20.8434 41.8509 21.1565H43.6742L43.6411 21.1786ZM44.5435 23.5176C44.9487 23.6097 45.3723 23.665 45.7959 23.665C47.6376 23.665 48.0612 22.2653 48.6321 20.8103L50.7501 15.4325H48.7426L47.5639 19.208H47.5455L46.2931 15.4325H44.1383L46.4773 21.3444C46.3355 21.8601 45.9616 22.1548 45.4717 22.1548C45.1955 22.1548 44.9524 22.1179 44.6798 22.0332L44.5509 23.5434L44.5435 23.5176Z" fill="white"/>
<path fill-rule="evenodd" clip-rule="evenodd" d="M7.35498 18.2433C7.35498 17.4569 7.74174 16.8012 8.4858 16.8012C9.38824 16.8012 9.76211 17.5195 9.76211 18.1641C9.76211 19.0518 9.19855 19.6503 8.48764 19.6503C7.89092 19.6503 7.35866 19.1531 7.35866 18.2506L7.35498 18.2433ZM11.6886 15.407H9.88367V16.4494H9.86525C9.44166 15.7404 8.76022 15.2707 7.91302 15.2707C6.12655 15.2707 5.31619 16.5599 5.31619 18.2783C5.31619 19.9819 6.31072 21.179 7.89461 21.179C8.70497 21.179 9.36799 20.8843 9.84683 20.2029H9.86525V20.516C9.86525 21.6578 9.25748 22.1919 8.0972 22.1919C7.26842 22.1919 6.75274 22.0078 6.14497 21.7131L6.05288 23.297C6.51331 23.4627 7.30525 23.6653 8.26295 23.6653C10.5909 23.6653 11.7438 22.9102 11.7438 20.5344V15.4125L11.6886 15.407ZM15.0571 12.9999H13.068V14.4604H15.0571V12.9999ZM13.068 21.1771H15.0571V15.4033H13.068V21.1771ZM20.6136 15.3352C20.4146 15.302 20.1715 15.2689 19.9376 15.2689C19.072 15.2689 18.5748 15.7367 18.2322 16.466H18.2101V15.4015H16.3923V21.1753H18.3869V18.7461C18.3869 17.6171 18.9081 16.9412 19.8382 16.9412C20.0721 16.9412 20.2931 16.9412 20.5141 17.0056L20.6136 15.3426V15.3352ZM24.0484 19.9119C23.1275 19.9119 22.7518 19.1476 22.7518 18.2948C22.7518 17.4292 23.1275 16.6649 24.0465 16.6649C24.9674 16.6649 25.3541 17.4311 25.3541 18.2948C25.3541 19.1476 24.9858 19.9119 24.0649 19.9119H24.0484ZM24.0484 21.3079C25.9527 21.3079 27.4058 20.2029 27.4058 18.3059C27.4058 16.3905 25.9509 15.2855 24.0465 15.2855C22.1422 15.2855 20.6946 16.3905 20.6946 18.3243C20.6946 20.2397 22.1496 21.3447 24.0649 21.3447L24.0484 21.3079Z" fill="#FF0007"/>
</g>
</g>
<defs>
<clipPath id="clip0_3926_5901">
<rect width="53.41" height="35" fill="white" transform="translate(0.78299 0.803589)"/>
</clipPath>
<clipPath id="clip1_3926_5901">
<rect width="53.41" height="34.9928" fill="white" transform="translate(0.78299 0.807495)"/>
</clipPath>
</defs>
</svg>
