<svg width="55" height="36" viewBox="0 0 55 36" fill="none" xmlns="http://www.w3.org/2000/svg">
<g clip-path="url(#clip0_3926_5859)">
<g clip-path="url(#clip1_3926_5859)">
<g clip-path="url(#clip2_3926_5859)">
<path fill-rule="evenodd" clip-rule="evenodd" d="M29.0711 0.557495C38.6113 0.557495 47.4884 5.29073 47.4884 18.0539C47.4884 30.817 38.6113 35.5503 29.0711 35.5503H7.48611V0.557495H29.0711Z" fill="white"/>
<path fill-rule="evenodd" clip-rule="evenodd" d="M28.9607 2.03113C37.801 2.03113 45.9967 6.3776 45.9967 18.0541C45.9967 29.7307 37.7826 34.0771 28.9423 34.0771H8.94119V2.03113H28.9607Z" fill="black"/>
<path fill-rule="evenodd" clip-rule="evenodd" d="M28.7764 3.55945C36.7695 3.55945 44.5047 7.2429 44.5047 18.0538C44.5047 28.8832 36.7695 32.5666 28.7764 32.5666H10.4881V3.55945H28.7764Z" fill="white"/>
<path fill-rule="evenodd" clip-rule="evenodd" d="M28.961 5.93515C39.643 5.93515 42.1294 12.197 42.1294 18.0905C42.1294 23.9288 39.6614 30.1907 28.9426 30.1907H21.281V5.89832H28.9058L28.961 5.93515Z" fill="#CC0066"/>
<path fill-rule="evenodd" clip-rule="evenodd" d="M12.8472 20.1537H18.4645V30.1911H12.8657V20.1169L12.8472 20.1537ZM15.6651 11.6081C18.354 11.6081 20.0484 14.4996 18.7039 16.8386C17.3595 19.1776 13.9891 19.196 12.6262 16.8386C12.3316 16.323 12.1658 15.7336 12.1658 15.089C12.1658 13.1184 13.7313 11.5897 15.6651 11.5897V11.6081Z" fill="black"/>
<path fill-rule="evenodd" clip-rule="evenodd" d="M19.1627 18.3485H22.2937C24.9642 18.3485 25.2773 15.9543 25.2773 15.0887C25.2773 14.2231 24.9457 11.8104 22.3305 11.8104H19.1443V18.3117L19.1627 18.3485ZM22.2937 13.4496C22.7357 13.4496 23.6381 13.4496 23.6381 15.1071C23.6381 16.7278 22.7725 16.7278 22.3489 16.7278H21.3544V13.4496H22.3489H22.2937ZM26.1981 18.3485H30.2131V16.7278H27.8188V15.8438H29.9552V14.2231H27.8004V13.4864H30.0842V11.8288H26.2165V18.3485H26.1981ZM35.5357 18.3485H37.1932L35.2778 11.8473H32.9572L30.9866 18.3485H32.681L33.0493 17.0962H35.1857L35.5357 18.3485ZM33.5098 15.4939L34.0623 13.6521H34.1728L34.7253 15.4939H33.5282H33.5098ZM38.0588 18.3854H42.8841V16.7647H39.6427V11.8473H38.0588V18.3485V18.3854Z" fill="white"/>
</g>
</g>
</g>
<defs>
<clipPath id="clip0_3926_5859">
<rect width="53.41" height="35" fill="white" transform="translate(0.78299 0.553589)"/>
</clipPath>
<clipPath id="clip1_3926_5859">
<rect width="53.41" height="35" fill="white" transform="translate(0.78299 0.553589)"/>
</clipPath>
<clipPath id="clip2_3926_5859">
<rect width="53.41" height="34.9928" fill="white" transform="translate(0.78299 0.557495)"/>
</clipPath>
</defs>
</svg>
