<svg width="36" height="36" viewBox="0 0 36 36" fill="none" xmlns="http://www.w3.org/2000/svg">
<g clip-path="url(#clip0_3926_5925)">
<g clip-path="url(#clip1_3926_5925)">
<g clip-path="url(#clip2_3926_5925)">
<mask id="mask0_3926_5925" style="mask-type:luminance" maskUnits="userSpaceOnUse" x="-4" y="-4" width="45" height="45">
<path d="M-3.59396 40.127H40.156V-3.62305H-3.59396V40.127Z" fill="white"/>
</mask>
<g mask="url(#mask0_3926_5925)">
<path d="M18.1356 28.9631H30.2672C33.0459 28.9631 33.064 26.0029 32.7916 24.55C32.6463 23.5693 30.9755 23.5875 30.7939 24.55V25.6941C30.7939 26.2208 30.3762 26.6385 29.8495 26.6385H6.56704C6.04037 26.6385 5.62266 26.2208 5.62266 25.6941V24.5682C5.44105 23.6056 3.77023 23.5875 3.62495 24.5682C3.33437 26.021 3.37069 28.9631 6.14933 28.9631H18.1356ZM9.56361 0.740841H28.2877C29.5953 0.740841 30.6849 1.88499 30.6849 3.26523V4.48202C30.6849 6.18916 28.3785 6.18916 28.3785 4.50018V3.84638C28.3785 3.42868 28.0334 3.08362 27.6157 3.08362H8.81901C8.40131 3.08362 8.05625 3.42868 8.05625 3.84638V4.50018C8.05625 6.20732 5.8406 6.18916 5.8406 4.5365V3.30155C5.8406 1.90315 6.9121 0.777161 8.23786 0.777161C8.25602 0.740839 9.56361 0.740841 9.56361 0.740841Z" fill="#2A6BAE"/>
<path d="M30.1924 14.6348C31.4818 15.2522 32.3899 16.5053 32.3899 17.9401C32.3899 19.9741 30.6101 21.6449 28.4308 21.6449H22.3287C21.7657 21.6449 21.2935 21.2091 21.2935 20.6824V9.09563C21.2935 8.53264 21.7475 8.07862 22.3105 8.07862H27.3956C29.5204 8.07862 31.2639 9.82208 31.2639 11.9651C31.2639 13.0003 30.8644 13.9446 30.1924 14.6348ZM25.634 13.6904H27.5772V13.6722C28.4671 13.5451 29.1391 12.7642 29.1391 11.8561C29.1391 10.8391 28.3037 10.0218 27.3048 10.0218H23.4002V19.6472H28.34C29.3933 19.6472 30.2469 18.7936 30.2469 17.7403C30.2469 16.687 29.3752 15.8334 28.34 15.8334H25.634C25.0528 15.8334 24.5625 15.3612 24.5625 14.7619C24.5625 14.1626 25.0528 13.6904 25.634 13.6904ZM10.3358 32.5218C10.3358 32.3402 10.4811 32.1949 10.6627 32.1949C10.8443 32.1949 10.9896 32.3402 10.9896 32.5218V34.2834C10.9896 34.6829 10.8262 35.0462 10.5538 35.3186C10.2813 35.591 9.91812 35.7544 9.51858 35.7544C9.11903 35.7544 8.75581 35.591 8.4834 35.3186C8.21098 35.0462 8.04753 34.6829 8.04753 34.2834V32.5218C8.04753 32.3402 8.19282 32.1949 8.37443 32.1949C8.55604 32.1949 8.70133 32.3402 8.70133 32.5218V34.2834C8.70133 34.5013 8.79214 34.7193 8.93742 34.8645C9.08271 35.0098 9.28248 35.1006 9.51858 35.1006C9.73651 35.1006 9.95444 35.0098 10.0997 34.8645C10.245 34.7193 10.3358 34.5195 10.3358 34.2834V32.5218ZM13.4116 35.0883C13.5932 35.0883 13.7385 35.2336 13.7385 35.4152C13.7385 35.5968 13.5932 35.7421 13.4116 35.7421H12.5035C12.1585 35.7421 11.8497 35.5968 11.6318 35.3789C11.4 35.1479 11.2694 34.8344 11.2686 34.5071V32.5094C11.2686 32.3278 11.4139 32.1825 11.5955 32.1825C11.7771 32.1825 11.9224 32.3278 11.9224 32.5094V34.5071C11.9224 34.6706 11.995 34.8159 12.0858 34.9067C12.1948 35.0156 12.3401 35.0701 12.4854 35.0701H13.4116V35.0883ZM20.3335 20.4922C20.4061 21.1642 19.9158 21.7635 19.2438 21.8362C18.5719 21.9088 17.9726 21.4185 17.8999 20.7465L16.901 11.5207L13.3415 20.5467L13.3233 20.5649V20.6375L13.287 20.692C13.2144 20.8191 13.1417 20.9281 13.0327 21.0189L13.0146 21.0371C12.9419 21.0916 12.8875 21.146 12.7966 21.1824L12.7785 21.2005L12.7422 21.2187H12.5606C12.4334 21.255 12.3245 21.2732 12.1973 21.2913H12.1429C12.0157 21.2913 11.8704 21.255 11.7433 21.2005H11.6525V21.2187L11.6343 21.2005L11.6162 21.1824H11.598C11.5254 21.146 11.4709 21.1097 11.4164 21.0552L11.3801 21.0189L11.3438 20.9826L11.3074 20.9463L11.2711 20.91C11.2166 20.8555 11.1803 20.7828 11.144 20.7283V20.7102L11.1258 20.692L11.1077 20.6739V20.5649L7.5481 11.5388L6.54924 20.7647C6.4766 21.4366 5.87728 21.927 5.20533 21.8543C4.53337 21.7817 4.04302 21.1824 4.11566 20.5104L5.29613 9.63193C5.31429 9.5048 5.33245 9.37768 5.36877 9.25055C5.4051 9.12342 5.45958 9.01445 5.51406 8.90549C5.8228 8.34249 6.36763 7.94295 7.03959 7.85215H7.11224C7.2212 7.83398 7.31201 7.83399 7.42097 7.83399C7.5481 7.83399 7.67523 7.85215 7.7842 7.88847C8.41983 8.03376 8.9465 8.46962 9.20076 9.12342L12.1973 16.7692L15.2302 9.0871C15.4845 8.45146 16.0112 7.99743 16.6468 7.85215C16.7558 7.83398 16.8829 7.81583 17.01 7.79766C17.119 7.79766 17.2098 7.79766 17.3188 7.81582H17.3914C18.0452 7.90663 18.6082 8.30617 18.9169 8.86917C18.9714 8.97813 19.0259 9.10526 19.0622 9.21423C19.0985 9.34135 19.1349 9.46848 19.1349 9.59561L20.3335 20.4922ZM7.92168 35.3789C7.93984 35.5605 7.81271 35.7239 7.6311 35.7421C7.44949 35.7603 7.28604 35.6331 7.26788 35.4515L6.99546 33.0906L5.9966 35.397C5.92396 35.5605 5.74235 35.6331 5.56074 35.5605C5.48809 35.5242 5.41545 35.4697 5.39729 35.397L4.39843 33.0906L4.12601 35.4515C4.10785 35.6331 3.9444 35.7603 3.76279 35.7421C3.58118 35.7239 3.45405 35.5605 3.47221 35.3789L3.79911 32.6547C3.81728 32.4731 3.92624 32.3278 4.08969 32.2552C4.10785 32.237 4.12601 32.237 4.14417 32.2188H4.16234C4.19866 32.2188 4.21682 32.2007 4.25314 32.2007C4.41659 32.1825 4.5982 32.237 4.70717 32.346L4.77981 32.4186C4.79797 32.4368 4.79797 32.4549 4.81613 32.4731C4.81613 32.4913 4.83429 32.4913 4.83429 32.5094L5.68786 34.4708L6.54143 32.5094C6.61408 32.346 6.75937 32.237 6.92282 32.2007C6.95914 32.2007 6.99546 32.1825 7.01362 32.1825H7.10443C7.28604 32.2007 7.43133 32.3096 7.50397 32.4368C7.52213 32.4731 7.54029 32.4913 7.54029 32.5276C7.54029 32.5457 7.55845 32.5639 7.55845 32.6002V32.6365L7.92168 35.3789ZM14.8525 35.4259C14.8525 35.6075 14.7072 35.7528 14.5256 35.7528C14.344 35.7528 14.1987 35.6075 14.1987 35.4259V32.847H13.2725C13.0909 32.847 12.9456 32.7017 12.9456 32.5201C12.9456 32.3385 13.0909 32.1932 13.2725 32.1932H15.7787C15.9603 32.1932 16.1056 32.3385 16.1056 32.5201C16.1056 32.7017 15.9603 32.847 15.7787 32.847H14.8525V35.4259ZM16.8814 35.4259C16.8814 35.6075 16.7361 35.7528 16.5545 35.7528C16.3729 35.7528 16.2276 35.6075 16.2276 35.4259V32.5201C16.2276 32.3385 16.3729 32.1932 16.5545 32.1932C16.7361 32.1932 16.8814 32.3385 16.8814 32.5201V35.4259ZM23.5945 35.3778C23.6127 35.5594 23.4855 35.7228 23.3039 35.741C23.1223 35.7592 22.9589 35.632 22.9407 35.4504L22.8317 34.5424H21.7057C21.5241 34.5424 21.3788 34.3971 21.3788 34.2155C21.3788 34.0339 21.5241 33.8886 21.7057 33.8886H22.7591L22.7228 33.6525V33.6343C22.7228 33.5798 22.7046 33.5254 22.6864 33.4709C22.6683 33.4164 22.6501 33.3437 22.6138 33.3074C22.4867 33.0532 22.2506 32.8716 21.96 32.8716C21.9055 32.8716 21.851 32.8716 21.7965 32.8897C21.7421 32.9079 21.7057 32.926 21.6513 32.9442C21.397 33.0713 21.2336 33.3437 21.1972 33.6706L20.9975 35.4867C20.9793 35.6684 20.8158 35.7955 20.6342 35.7773C20.4526 35.7592 20.3255 35.5957 20.3437 35.4141L20.5434 33.598C20.5979 33.0532 20.9067 32.581 21.3425 32.363C21.4333 32.3267 21.5241 32.2904 21.6331 32.2541C21.7421 32.2359 21.8329 32.2178 21.9418 32.2178C22.5048 32.1814 22.9589 32.5265 23.1949 32.9987C23.2494 33.0895 23.2858 33.1803 23.3039 33.2711C23.3221 33.3619 23.3402 33.4345 23.3584 33.5435V33.5798L23.5945 35.3778ZM24.5859 35.4259C24.5859 35.6075 24.4406 35.7528 24.259 35.7528C24.0774 35.7528 23.9321 35.6075 23.9321 35.4259V32.6654C23.9503 32.6291 23.9503 32.5928 23.9684 32.5565C23.9684 32.5383 23.9866 32.5201 23.9866 32.502C24.0411 32.4112 24.1319 32.3204 24.2408 32.284C24.259 32.284 24.2772 32.2659 24.2772 32.2659H24.386C24.5131 32.2659 24.6402 32.3385 24.731 32.4475L26.4926 34.6631V32.5201C26.4926 32.3385 26.6379 32.1932 26.8195 32.1932C27.0011 32.1932 27.1464 32.3385 27.1464 32.5201V35.208C27.1464 35.3533 27.0738 35.4804 26.983 35.5712C26.9648 35.5894 26.9467 35.6075 26.9103 35.6075C26.8922 35.6075 26.8922 35.6257 26.874 35.6257C26.874 35.6257 26.8559 35.6257 26.8559 35.6438C26.7287 35.6802 26.6198 35.6802 26.5108 35.6257C26.4926 35.6257 26.4745 35.6075 26.4745 35.6075C26.4563 35.5894 26.4381 35.5712 26.4018 35.553L26.3655 35.5167L26.3473 35.4986L24.5857 33.2647V35.4259H24.5859ZM29.6919 35.0883C29.8735 35.0883 30.0188 35.2336 30.0188 35.4152C30.0188 35.5968 29.8735 35.7421 29.6919 35.7421H28.7294C28.3661 35.7421 28.0574 35.5968 27.8213 35.3607C27.5852 35.1428 27.4399 34.8159 27.4399 34.4527V33.472C27.4399 33.1087 27.5852 32.8 27.8213 32.5639C28.0574 32.3278 28.3843 32.1825 28.7294 32.1825H29.6919C29.8735 32.1825 30.0188 32.3278 30.0188 32.5094C30.0188 32.691 29.8735 32.8363 29.6919 32.8363H28.7294C28.5477 32.8363 28.4025 32.909 28.2753 33.0179C28.1664 33.1269 28.0937 33.2903 28.0937 33.472V34.4527C28.0937 34.6343 28.1664 34.7796 28.2753 34.9067C28.3843 35.0156 28.5477 35.0883 28.7294 35.0883H29.6919ZM31.5732 32.8401C31.3371 32.8401 31.1192 32.9309 30.9557 33.0944C30.7923 33.2397 30.7015 33.4394 30.7015 33.6755V34.293C30.7015 34.511 30.7923 34.7289 30.9557 34.8742C31.1192 35.0195 31.3371 35.1284 31.5732 35.1284C31.8093 35.1284 32.0272 35.0376 32.1907 34.8742C32.3541 34.7289 32.4449 34.5291 32.4449 34.293V33.6755C32.4449 33.4576 32.3541 33.2397 32.1907 33.0944C32.0454 32.9309 31.8274 32.8401 31.5732 32.8401ZM31.5732 32.1863C31.9909 32.1863 32.3723 32.3498 32.6447 32.6222C32.9171 32.8946 33.0987 33.2578 33.0987 33.6755V34.293C33.0987 34.7107 32.9171 35.0739 32.6447 35.3464C32.3723 35.6188 31.9909 35.7822 31.5732 35.7822C31.1555 35.7822 30.7741 35.6188 30.5017 35.3464C30.2293 35.0739 30.0477 34.7107 30.0477 34.293V33.6755C30.0477 33.2578 30.2293 32.8946 30.5017 32.6222C30.7923 32.3498 31.1555 32.1863 31.5732 32.1863ZM17.818 32.841V35.093H19.0893C19.1982 35.093 19.3072 35.0385 19.3799 34.9659C19.4525 34.8932 19.507 34.7843 19.507 34.6753C19.507 34.5663 19.4707 34.4755 19.398 34.4029L19.3799 34.3847C19.3072 34.3121 19.1982 34.2576 19.0893 34.2576H18.6353C18.4536 34.2576 18.3084 34.1123 18.3084 33.9307C18.3084 33.7491 18.4536 33.6038 18.6353 33.6038H18.7987C18.8895 33.6038 18.9803 33.5493 19.053 33.4948C19.1256 33.4222 19.1619 33.3314 19.1619 33.2224C19.1619 33.1135 19.1256 33.0227 19.053 32.95C18.9803 32.8774 18.8895 32.841 18.7805 32.841H17.818ZM17.1642 33.9489V32.5323C17.1642 32.4778 17.1824 32.4415 17.1824 32.4052C17.2005 32.3689 17.2187 32.3325 17.255 32.2962C17.3095 32.2417 17.3821 32.2054 17.4729 32.2054H18.7442C19.0348 32.2054 19.289 32.3144 19.4888 32.5141C19.6704 32.6958 19.7976 32.9682 19.7976 33.2406C19.7976 33.4404 19.7431 33.6401 19.6341 33.8036C19.7068 33.8399 19.7612 33.8944 19.8157 33.9489L19.8339 33.967C20.0155 34.1486 20.1245 34.4211 20.1245 34.6935C20.1245 34.984 19.9973 35.2565 19.8157 35.4381C19.6159 35.6378 19.3617 35.7468 19.0711 35.7468H17.4729C17.2913 35.7468 17.146 35.6015 17.146 35.4199C17.1642 35.4199 17.1642 33.9489 17.1642 33.9489Z" fill="#424041"/>
</g>
</g>
</g>
</g>
<defs>
<clipPath id="clip0_3926_5925">
<rect width="35" height="35" fill="white" transform="translate(0.78299 0.743164)"/>
</clipPath>
<clipPath id="clip1_3926_5925">
<rect width="35" height="35" fill="white" transform="translate(0.78299 0.743164)"/>
</clipPath>
<clipPath id="clip2_3926_5925">
<rect width="35" height="35" fill="white" transform="translate(0.78299 0.743164)"/>
</clipPath>
</defs>
</svg>
