<svg width="55" height="36" viewBox="0 0 55 36" fill="none" xmlns="http://www.w3.org/2000/svg">
<g clip-path="url(#clip0_3926_6039)">
<g clip-path="url(#clip1_3926_6039)">
<g clip-path="url(#clip2_3926_6039)">
<path d="M49.736 35.4304H5.23996C2.79784 35.4488 0.801407 33.4874 0.78299 31.0471V4.82093C0.801407 2.37881 2.79784 0.419212 5.23996 0.437629H49.736C52.1781 0.419212 54.1746 2.37881 54.193 4.82093V31.0655C54.1635 33.4966 52.1708 35.4488 49.736 35.4304Z" fill="#83BA3B"/>
<path d="M47.5167 17.4274C47.2552 17.6116 46.8758 17.7 46.3564 17.7H45.8408L46.2349 15.5636H46.6032C47.0268 15.5636 47.3399 15.6372 47.5609 15.7754C47.7267 15.8859 47.9293 16.1069 47.9293 16.5213C47.9293 17.0185 47.6899 17.2893 47.4909 17.4274M16.7507 20.1071H12.7689L13.0268 18.7129H15.5315L15.8133 17.1401H13.3435L13.583 15.7588H17.5611L16.7599 20.1053M49.6679 14.5433C49.0785 14.1381 48.1945 13.9355 47.0287 13.9355H43.9806L42.8461 20.0868H38.8496L39.1074 18.6871H41.5017L41.7779 17.1143L39.3726 17.1217L39.6305 15.733H42.1094L42.4409 13.9281H37.4333L36.3577 19.7664H34.505L35.5916 13.9281H32.9579L31.8842 19.7664H30.0848L31.1714 13.9281H28.5378L27.4014 20.0795H23.3809L23.6333 18.6798H26.0459L26.3332 17.1198H23.9206L24.1784 15.7201H26.6831L27.0091 13.9152H11.3361L10.4428 18.7958L8.66556 13.9336H5.93428L4.46643 21.912H7.07247L7.96202 16.9025L9.68772 21.912H19.0253L20.1634 15.7606H21.6239L20.4876 21.912H45.0562L45.756 18.026L46.9071 21.912H49.515L48.3179 18.7387L48.5941 18.6798C49.1945 18.5508 49.6623 18.2746 49.9902 17.8584C50.3217 17.4348 50.4874 16.9007 50.4874 16.2376C50.4874 15.4825 50.2112 14.93 49.6458 14.5433" fill="white"/>
</g>
</g>
</g>
<defs>
<clipPath id="clip0_3926_6039">
<rect width="53.41" height="35" fill="white" transform="translate(0.78299 0.433594)"/>
</clipPath>
<clipPath id="clip1_3926_6039">
<rect width="53.41" height="35" fill="white" transform="translate(0.78299 0.433594)"/>
</clipPath>
<clipPath id="clip2_3926_6039">
<rect width="53.41" height="34.9928" fill="white" transform="translate(0.78299 0.4375)"/>
</clipPath>
</defs>
</svg>
