<svg width="55" height="36" viewBox="0 0 55 36" fill="none" xmlns="http://www.w3.org/2000/svg">
<g clip-path="url(#clip0_3926_5941)">
<g clip-path="url(#clip1_3926_5941)">
<g clip-path="url(#clip2_3926_5941)">
<path d="M49.736 35.5496H5.23996C2.79784 35.5698 0.803248 33.6065 0.78299 31.1663V4.9401C0.803248 2.49797 2.79784 0.536537 5.23996 0.556796H49.736C52.1781 0.536537 54.1727 2.49797 54.193 4.9401V31.1847C54.1635 33.6176 52.1708 35.5698 49.736 35.5496Z" fill="white"/>
<path fill-rule="evenodd" clip-rule="evenodd" d="M24.7715 13.0509L24.5118 11.6069C24.5118 11.6069 26.3424 11.1207 28.011 10.8076C29.687 10.5001 31.9063 10.3472 31.9063 10.3472L31.1733 12.5812C31.1733 12.5812 29.2229 12.316 27.3904 12.5628C25.963 12.7341 24.7715 13.0509 24.7715 13.0509ZM32.3336 12.7709L33.5694 10.292C33.5694 10.292 36.273 10.2367 38.6046 10.5995C40.9418 10.9623 43.0763 11.5149 43.0248 11.537L37.1128 14.6292C37.1128 14.6292 35.7297 13.7544 34.0151 13.2203C33.0426 12.9311 32.3336 12.7709 32.3336 12.7709ZM38.1718 15.3033L39.4703 16.2904H50.1559C50.1559 16.2904 50.1357 15.946 49.8521 15.4561C49.6716 15.1504 49.3493 14.8208 49.0104 14.4837C48.887 14.3658 48.3971 13.9809 48.0287 13.7397C47.0858 13.1282 46.559 12.8925 45.5774 12.4468L38.1718 15.3033ZM12.1501 17.9222H15.3418C15.3418 17.9222 16.0564 17.3458 16.5647 16.9756C17.0712 16.6017 17.9939 16.016 17.9939 16.016L16.1927 15.1725C16.1927 15.1725 14.6696 16.1173 14.0231 16.5612C13.3933 16.97 12.1501 17.9222 12.1501 17.9222ZM19.0069 15.4193L17.5298 14.4229C17.5298 14.4229 18.8669 13.6623 20.646 12.9532C22.4269 12.2423 23.3791 11.9477 23.3791 11.9477L23.6775 13.3621C23.6775 13.3621 21.9665 13.9349 20.9849 14.399C19.9682 14.8318 19.0069 15.4193 19.0069 15.4193Z" fill="#B3B2B1"/>
<path fill-rule="evenodd" clip-rule="evenodd" d="M28.3806 19.2371L29.3383 19.2352L29.6772 22.6332L31.1432 19.2334H32.3256L32.6737 22.6443L34.1379 19.2352H35.1306L33.0255 24.0606H31.8505L31.5097 20.6828L30.0253 24.0606L28.8687 24.0661L28.3806 19.2371ZM36.278 19.2371L36.9152 22.7677L38.7238 19.2352L39.7386 19.2481L37.138 24.2889C37.138 24.2889 36.6629 25.2006 36.3737 25.4326C36.0827 25.6629 35.9022 25.7697 35.6665 25.7936C35.4234 25.8176 35.3276 25.8341 35.0993 25.7936L34.8561 25.7476L35.0053 24.8488C35.0053 24.8488 35.4105 24.9206 35.6481 24.8267C35.8875 24.7346 36.0827 24.3239 36.0827 24.3239L36.2006 24.1195L35.2632 19.2352L36.278 19.2371Z" fill="#D13239"/>
<path fill-rule="evenodd" clip-rule="evenodd" d="M40.1102 19.7164L41.1581 19.7183L41.2208 19.315C41.2208 19.315 41.3331 18.5801 41.5836 18.4401C41.6609 18.3941 41.7917 18.3517 41.9409 18.3278C42.2134 18.2744 42.5597 18.2707 42.8488 18.2836C43.2816 18.2946 43.4492 18.3002 43.8894 18.3517C44.3296 18.4051 44.2172 18.8324 44.2172 18.8324L44.1288 19.4697C44.1288 19.4697 44.0938 19.757 43.9889 19.9319C43.8986 20.0903 43.6537 20.2008 43.5082 20.2469C43.1619 20.3574 41.9814 20.6594 41.9814 20.6594L41.055 20.9246C41.055 20.9246 40.4841 21.0922 40.1636 21.444C39.8431 21.7976 39.7197 22.1991 39.6755 22.409C39.6332 22.6172 39.3846 24.0611 39.3846 24.0611L44.3977 24.0666L44.5653 23.061L40.6001 23.0702L40.6701 22.6614C40.6701 22.6614 40.7161 22.2415 40.8874 22.1033C40.9427 22.0591 40.9684 21.9983 41.2852 21.886C41.4749 21.8179 42.1195 21.6484 42.1195 21.6484L43.615 21.2377C43.615 21.2377 44.429 21.0296 44.7495 20.5857C45.0718 20.1364 45.1989 19.2836 45.1989 19.2836C45.1989 19.2836 45.2818 18.4549 45.2155 18.197C45.151 17.9373 44.9042 17.6242 44.6058 17.4898C44.3056 17.359 43.9981 17.278 43.0938 17.2927C42.1913 17.3038 41.7456 17.3461 41.2889 17.5156C40.8303 17.685 40.5669 17.9908 40.3975 18.4236C40.2133 18.8361 40.1102 19.7164 40.1102 19.7164ZM49.5435 21.5803L50.2452 17.3682H49.002L45.1289 21.5324L44.9502 22.5859H48.3409L48.0904 24.0611L49.1328 24.0666L49.3759 22.5859L50.3373 22.5877L50.5104 21.5803H49.5435ZM48.5103 21.5821L46.3186 21.5803L48.9855 18.7403L48.5103 21.5821Z" fill="#B3B2B1"/>
<path fill-rule="evenodd" clip-rule="evenodd" d="M14.1099 19.2369L17.913 19.2332L17.773 20.0988L14.5942 23.134L17.2629 23.1284L17.11 24.0603L13.1798 24.0659L13.3419 23.1008L16.3899 20.1798H13.957L14.1099 19.2369ZM9.95492 17.7598C9.8702 17.6696 9.75049 17.6033 9.61973 17.5499C9.4816 17.4983 9.33058 17.4578 9.17771 17.4301C8.98986 17.3951 8.80569 17.3823 8.67124 17.3767C8.55337 17.373 8.47418 17.373 8.47418 17.373H5.5753L4.46658 24.0659H5.49979L5.90865 21.5851L7.91613 21.598C7.91613 21.598 8.69887 21.6274 9.25322 21.3328C9.80758 21.0362 9.95676 20.3695 9.95676 20.3695C9.95676 20.3695 10.0194 20.1246 10.0691 19.8225C10.1244 19.4873 10.1796 19.0914 10.2109 18.8814C10.222 18.7875 10.2275 18.7267 10.2275 18.7267C10.2275 18.7267 10.2404 18.6586 10.2404 18.5554C10.2478 18.4044 10.2238 18.1797 10.1041 17.9661C10.0673 17.8906 10.0194 17.8243 9.95492 17.7598ZM9.15745 18.9385C9.15745 18.9532 9.06537 19.4873 8.94382 20.1264C8.89777 20.3677 8.70807 20.4985 8.49812 20.5445C8.13898 20.62 7.76143 20.6071 7.76143 20.6071L6.08362 20.6016L6.45196 18.3786L7.97138 18.3805H8.21449C8.37841 18.3842 8.59573 18.3934 8.77438 18.4191C8.92724 18.4357 9.04511 18.4689 9.08563 18.5186C9.13535 18.5794 9.15745 18.6604 9.16482 18.7322C9.17403 18.8409 9.15745 18.933 9.15745 18.9385ZM23.0662 17.373H24.0644L22.9464 24.0659L21.9501 24.0603L23.0662 17.373Z" fill="#D13239"/>
<path d="M21.2267 19.2795C20.9468 19.1874 20.4624 19.1672 20.0554 19.1727C19.6576 19.1782 19.4752 19.1948 19.3279 19.2298C19.3279 19.2298 18.6207 19.3293 18.2229 19.8284C17.8195 20.3219 17.6998 21.403 17.6998 21.403C17.6998 21.403 17.4622 22.602 17.5322 23.0072C17.6022 23.4032 17.7274 23.7752 18.1787 23.9483C18.6336 24.1214 19.0166 24.1141 19.0166 24.1141C19.0166 24.1141 19.8252 24.1767 20.4311 24.0349C21.037 23.8894 21.3593 23.4621 21.3593 23.4621C21.3593 23.4621 21.5011 23.2779 21.6061 23.0569C21.7037 22.8414 21.7387 22.6867 21.7442 22.6665L21.8087 22.4086L20.7718 22.4105C20.7718 22.4105 20.7166 23.0937 20.1567 23.1527C19.6023 23.2171 19.304 23.1932 19.1916 23.1914C19.0885 23.1858 18.4899 23.2135 18.5396 22.7088C18.5396 22.7051 18.5396 22.6922 18.5415 22.6794C18.5673 22.1103 18.6317 21.9648 18.6317 21.9648L21.8732 21.9519L22.0131 21.1507C22.1752 20.2428 22.0592 19.5484 21.2267 19.2795ZM21.0094 21.0347L18.7883 21.0329L18.8748 20.6829C18.8748 20.6829 18.954 20.4067 19.1051 20.2888C19.2598 20.1728 19.4605 20.1507 19.6447 20.1304C19.8288 20.1138 20.3187 20.0807 20.7221 20.1599C20.8547 20.1893 20.9836 20.2649 21.0131 20.3772C21.0941 20.6369 21.0094 21.0347 21.0094 21.0347Z" fill="#D13239"/>
<path d="M18.5451 22.6865C18.5451 22.6939 18.5433 22.7049 18.5433 22.7086C18.5414 22.751 18.5451 22.6865 18.5451 22.6865ZM24.6652 22.6902C24.6652 22.7013 24.6633 22.7068 24.6633 22.7123C24.6633 22.7528 24.6652 22.6865 24.6652 22.6902Z" fill="#D13239"/>
<path d="M27.348 19.2796C27.0681 19.1894 26.5837 19.1691 26.173 19.1747C25.7789 19.1802 25.5947 19.2023 25.4492 19.2336C25.4492 19.2336 24.742 19.3312 24.3442 19.8303C23.9408 20.3239 23.8211 21.4105 23.8211 21.4105C23.8211 21.4105 23.5854 22.6076 23.6554 23.0091C23.7235 23.4051 23.8487 23.7771 24.3 23.9521C24.7549 24.1271 25.1361 24.1142 25.1361 24.1142C25.1361 24.1142 25.9409 24.1805 26.5524 24.0387C27.1602 23.8895 27.4769 23.4659 27.4769 23.4659C27.4769 23.4659 27.6224 23.2817 27.7237 23.0607C27.825 22.8434 27.8582 22.6868 27.8655 22.6684L27.9282 22.4106H26.895C26.895 22.4106 26.8379 23.0939 26.2798 23.1602C25.7236 23.2209 25.4253 23.197 25.3129 23.1933C25.2043 23.1915 24.6075 23.2154 24.661 22.7145C24.661 22.7089 24.6609 22.7016 24.6628 22.685C24.6886 22.1141 24.753 21.9686 24.753 21.9686L27.9945 21.9557L28.1326 21.1564C28.291 20.2466 28.1786 19.5485 27.348 19.2796ZM27.1233 21.0348L24.8985 21.033L24.9869 20.683C24.9869 20.683 25.0624 20.4068 25.219 20.2889C25.37 20.1729 25.5689 20.1508 25.7531 20.1305C25.9373 20.1139 26.4327 20.0808 26.8323 20.16C26.9686 20.1895 27.0902 20.265 27.1289 20.3773C27.2062 20.637 27.1233 21.0348 27.1233 21.0348ZM12.8426 19.2336C12.443 19.2336 12.0636 19.3938 11.7394 19.5706L11.7965 19.2336H10.7338L9.8848 24.0387H10.9475L11.419 21.3755C11.5166 20.8377 11.9199 20.171 12.7063 20.171L13.2552 20.1692L13.4191 19.2336H12.8426Z" fill="#D13239"/>
</g>
</g>
</g>
<defs>
<clipPath id="clip0_3926_5941">
<rect width="53.41" height="35" fill="white" transform="translate(0.78299 0.552734)"/>
</clipPath>
<clipPath id="clip1_3926_5941">
<rect width="53.41" height="35" fill="white" transform="translate(0.78299 0.552734)"/>
</clipPath>
<clipPath id="clip2_3926_5941">
<rect width="53.41" height="34.9928" fill="white" transform="translate(0.78299 0.556641)"/>
</clipPath>
</defs>
</svg>
