<svg width="146" height="36" viewBox="0 0 146 36" fill="none" xmlns="http://www.w3.org/2000/svg">
<g clip-path="url(#clip0_3926_5809)">
<g clip-path="url(#clip1_3926_5809)">
<g clip-path="url(#clip2_3926_5809)">
<path fill-rule="evenodd" clip-rule="evenodd" d="M13.3867 9.12317H23.2574C28.5571 9.12317 30.5521 11.8061 30.2438 15.7478C29.7342 22.2552 25.8002 25.8555 20.5821 25.8555H17.9475C17.2315 25.8555 16.75 26.3294 16.5563 27.6135L15.4378 35.079C15.3639 35.5631 15.1091 35.8434 14.7269 35.8816H8.52523C7.94176 35.8816 7.73537 35.4357 7.88825 34.47L11.6694 10.5373C11.8172 9.57925 12.342 9.12317 13.3867 9.12317Z" fill="#009EE3"/>
<path fill-rule="evenodd" clip-rule="evenodd" d="M56.2418 8.67981C59.572 8.67981 62.6448 10.4863 62.2244 14.9885C61.7148 20.3392 58.8484 23.2999 54.3258 23.3126H50.374C49.8058 23.3126 49.5306 23.7763 49.3828 24.7267L48.6184 29.5856C48.5038 30.3194 48.1267 30.6812 47.5712 30.6812H43.8946C43.3085 30.6812 43.1047 30.3067 43.2346 29.4684L46.2692 9.99454C46.4196 9.03652 46.7788 8.67981 47.4336 8.67981H56.2342H56.2418ZM50.2542 19.106H53.248C55.1208 19.0346 56.3641 17.7377 56.489 15.3987C56.5654 13.954 55.5896 12.9196 54.0379 12.9272L51.2199 12.94L50.2542 19.106ZM72.2199 29.1907C72.5563 28.8849 72.8977 28.727 72.8493 29.104L72.7295 30.006C72.6684 30.4774 72.8544 30.7271 73.2926 30.7271H76.5591C77.1094 30.7271 77.377 30.5054 77.512 29.6544L79.5249 17.0217C79.6268 16.3873 79.4714 16.0765 78.9898 16.0765H75.3972C75.0736 16.0765 74.9157 16.2574 74.8316 16.7517L74.6991 17.5288C74.6303 17.9339 74.4443 18.0052 74.271 17.5976C73.6621 16.1554 72.1078 15.5083 69.9395 15.5592C64.9023 15.6637 61.5059 19.4881 61.1415 24.3904C60.8612 28.1817 63.5773 31.1602 67.1597 31.1602C69.7586 31.1602 70.9205 30.3958 72.2301 29.1983L72.2199 29.1907ZM69.4835 27.2466C67.3152 27.2466 65.8042 25.5166 66.1176 23.3967C66.431 21.2768 68.4592 19.5467 70.6275 19.5467C72.7958 19.5467 74.3067 21.2768 73.9933 23.3967C73.6799 25.5166 71.6543 27.2466 69.4835 27.2466ZM85.9176 16.0357H82.6053C81.9225 16.0357 81.6447 16.5453 81.8613 17.1721L85.9737 29.2136L81.9403 34.9439C81.6014 35.4229 81.8639 35.8586 82.3403 35.8586H86.0629C86.2798 35.8837 86.4994 35.8459 86.6955 35.7497C86.8915 35.6534 87.0558 35.5029 87.1687 35.3159L99.8166 17.1746C100.206 16.6166 100.023 16.0306 99.3835 16.0306H95.8597C95.2558 16.0306 95.0138 16.2701 94.6672 16.772L89.393 24.4159L87.0362 16.7542C86.8986 16.2905 86.5546 16.0357 85.9202 16.0357H85.9176Z" fill="#113984"/>
<path fill-rule="evenodd" clip-rule="evenodd" d="M112.974 8.68003C116.304 8.68003 119.377 10.4865 118.956 14.9887C118.447 20.3394 115.58 23.3001 111.058 23.3128H107.108C106.54 23.3128 106.265 23.7765 106.117 24.7269L105.353 29.5858C105.238 30.3196 104.861 30.6814 104.306 30.6814H100.629C100.043 30.6814 99.8391 30.3069 99.969 29.4686L103.009 9.98966C103.159 9.03164 103.518 8.67493 104.173 8.67493H112.974V8.68003ZM106.986 19.1062H109.98C111.853 19.0348 113.096 17.7379 113.221 15.3989C113.297 13.9542 112.321 12.9198 110.77 12.9274L107.952 12.9402L106.986 19.1062ZM128.952 29.1909C129.288 28.8851 129.63 28.7272 129.581 29.1043L129.461 30.0062C129.4 30.4776 129.586 30.7273 130.024 30.7273H133.291C133.841 30.7273 134.109 30.5056 134.244 29.6546L136.257 17.022C136.359 16.3875 136.203 16.0767 135.722 16.0767H132.134C131.811 16.0767 131.653 16.2576 131.568 16.7519L131.436 17.529C131.367 17.9341 131.181 18.0055 131.008 17.5978C130.399 16.1557 128.845 15.5085 126.676 15.5594C121.639 15.6639 118.243 19.4884 117.878 24.3906C117.598 28.1819 120.314 31.1604 123.897 31.1604C126.496 31.1604 127.657 30.3961 128.967 29.1985L128.952 29.1909ZM126.218 27.2468C124.05 27.2468 122.539 25.5168 122.852 23.3969C123.165 21.277 125.194 19.547 127.362 19.547C129.53 19.547 131.041 21.277 130.728 23.3969C130.414 25.5168 128.386 27.2468 126.218 27.2468ZM141.284 30.7477H137.513C137.447 30.7506 137.382 30.739 137.321 30.7137C137.261 30.6885 137.206 30.6501 137.162 30.6014C137.118 30.5527 137.085 30.4949 137.066 30.4321C137.047 30.3693 137.042 30.3031 137.052 30.2381L140.364 9.25331C140.396 9.1101 140.475 8.98179 140.589 8.88927C140.702 8.79675 140.844 8.74545 140.991 8.74373H144.762C144.827 8.74079 144.893 8.75238 144.953 8.77766C145.014 8.80294 145.068 8.84129 145.112 8.88997C145.156 8.93865 145.189 8.99646 145.208 9.05927C145.227 9.12208 145.232 9.18834 145.223 9.25331L141.911 30.2381C141.88 30.3822 141.801 30.5117 141.687 30.6052C141.573 30.6988 141.431 30.7508 141.284 30.7528V30.7477Z" fill="#009EE3"/>
<path fill-rule="evenodd" clip-rule="evenodd" d="M7.21355 0.885864H17.0944C19.8768 0.885864 23.1789 0.975042 25.3854 2.92421C26.8607 4.22621 27.6352 6.29768 27.4569 8.52967C26.8505 16.0741 22.3381 20.3011 16.2842 20.3011H11.4125C10.5819 20.3011 10.0341 20.8515 9.7997 22.3395L8.4391 31.0024C8.34992 31.563 8.10787 31.8942 7.67472 31.935H1.57752C0.902314 31.935 0.662806 31.4254 0.838614 30.2992L5.22106 2.53183C5.39687 1.41583 6.01092 0.885864 7.21355 0.885864Z" fill="#113984"/>
<path fill-rule="evenodd" clip-rule="evenodd" d="M9.94315 21.4609L11.6681 10.5379C11.8184 9.57985 12.3433 9.12122 13.388 9.12122H23.2586C24.8919 9.12122 26.2143 9.37601 27.2487 9.84738C26.2576 16.5637 21.9133 20.2939 16.2264 20.2939H11.3623C10.7101 20.2965 10.2311 20.6226 9.94315 21.4609Z" fill="#172C70"/>
</g>
</g>
</g>
<defs>
<clipPath id="clip0_3926_5809">
<rect width="144.45" height="35" fill="white" transform="translate(0.78299 0.883789)"/>
</clipPath>
<clipPath id="clip1_3926_5809">
<rect width="144.45" height="35" fill="white" transform="translate(0.78299 0.883789)"/>
</clipPath>
<clipPath id="clip2_3926_5809">
<rect width="144.45" height="34.9959" fill="white" transform="translate(0.78299 0.885864)"/>
</clipPath>
</defs>
</svg>
