<svg width="55" height="35" viewBox="0 0 55 35" fill="none" xmlns="http://www.w3.org/2000/svg">
<g clip-path="url(#clip0_3926_5889)">
<g clip-path="url(#clip1_3926_5889)">
<path d="M49.736 34.99H5.23996C2.79784 35.0084 0.801407 33.0469 0.78299 30.6067V4.3805C0.801407 1.93838 2.79784 -0.0212182 5.23996 -0.00280092H49.736C52.1781 -0.0212182 54.1746 1.93838 54.193 4.3805V30.6251C54.1635 33.0561 52.1708 35.0084 49.736 34.99Z" fill="#6B195F"/>
<path d="M36.7337 13.736C37.6987 13.736 38.4741 12.9551 38.4741 11.9974C38.4741 11.036 37.7006 10.2588 36.7355 10.2588C35.7778 10.2588 35.0043 11.036 35.0043 11.9974C35.0043 12.9551 35.776 13.736 36.7337 13.736ZM23.4198 14.6716C23.3462 14.8705 22.7937 16.4636 21.4124 18.1156V11.047L17.7842 11.769V24.58H21.4124V20.6203C22.4713 22.2042 22.9889 24.58 22.9889 24.58H27.3482C26.9246 22.788 25.0424 19.4858 25.0424 19.4858C26.7368 17.3384 27.4808 15.051 27.595 14.6716H23.4327M33.0042 14.539C29.7443 14.6421 28.0868 16.1044 28.0868 19.0107V24.58H31.6413V20.0402C31.6413 18.2979 31.8678 17.5539 33.9342 17.4802V14.5887C33.5843 14.515 33.0005 14.5334 33.0005 14.5334M11.6825 16.0805C11.2368 16.051 10.2092 15.9829 10.2092 15.0583C10.2092 13.9349 11.7009 13.9349 12.2535 13.9349C13.2296 13.9349 14.5004 14.2222 15.4083 14.4948C15.4083 14.4948 15.913 14.6734 16.3403 14.8539L16.3845 14.8631V11.7985L16.3089 11.7837C15.2407 11.4099 13.9994 11.047 11.6936 11.047C7.71914 11.047 6.30838 13.3676 6.30838 15.3512C6.30838 16.493 6.79828 19.1819 11.351 19.495C11.7378 19.5171 12.7599 19.5779 12.7599 20.5375C12.7599 21.3294 11.9238 21.8009 10.5167 21.8009C8.96967 21.8009 7.46682 21.3957 6.55701 21.0273V24.1951C7.91989 24.545 9.45773 24.7292 11.2571 24.7292C15.1468 24.7292 16.8836 22.5376 16.8836 20.3643C16.8836 17.8964 14.9405 16.2941 11.6678 16.0731M34.9711 24.569H38.4999V14.6789H34.9638V24.5727M45.1301 11.6732V24.5745H48.668V11.047L45.1374 11.6806M39.9917 11.6806L43.5112 11.047V24.58H39.9935V11.6806" fill="white"/>
</g>
</g>
<defs>
<clipPath id="clip0_3926_5889">
<rect width="53.41" height="35" fill="white" transform="translate(0.78299 -0.00683594)"/>
</clipPath>
<clipPath id="clip1_3926_5889">
<rect width="53.41" height="34.9928" fill="white" transform="translate(0.78299 -0.00292969)"/>
</clipPath>
</defs>
</svg>
