<svg width="55" height="36" viewBox="0 0 55 36" fill="none" xmlns="http://www.w3.org/2000/svg">
<g clip-path="url(#clip0_3926_5847)">
<g clip-path="url(#clip1_3926_5847)">
<g clip-path="url(#clip2_3926_5847)">
<path d="M49.736 35.74H5.23996C2.79784 35.7584 0.801407 33.7969 0.78299 31.3567V5.1305C0.801407 2.68838 2.79784 0.728782 5.23996 0.747199H49.736C52.1781 0.728782 54.1746 2.68838 54.193 5.1305V31.3751C54.1635 33.8061 52.1708 35.7584 49.736 35.74Z" fill="#F17F00"/>
<path d="M19.0714 13.7383C18.3899 13.7383 17.7269 13.8985 17.1118 14.1877C16.2278 14.6076 15.4229 15.3037 14.7728 16.232C14.3437 16.8342 13.9809 17.5304 13.6935 18.3131C13.1539 19.7865 13.1594 20.9799 13.712 21.7664C14.0251 22.2084 14.6697 22.7425 15.9883 22.7462H15.9939C18.3881 22.7462 20.1746 21.1715 21.3164 18.0682C21.6111 17.2486 21.9979 15.7145 21.2796 14.6831C20.8376 14.0569 20.0825 13.7401 19.0511 13.7383H19.0714ZM33.5529 13.7383C32.8714 13.7383 32.2139 13.8985 31.5951 14.1877C30.7074 14.6076 29.9081 15.3037 29.2561 16.232C28.827 16.8342 28.4642 17.5304 28.1769 18.3131C27.6391 19.7865 27.6483 20.9799 28.1953 21.7664C28.5084 22.2084 29.153 22.7425 30.4735 22.7462H30.4919C32.9046 22.7462 34.691 21.1715 35.8329 18.0682C36.1276 17.2486 36.5328 15.7145 35.8145 14.6831C35.378 14.0569 34.6266 13.7401 33.586 13.7383H33.5529ZM11.3638 13.8598C10.5718 13.8598 9.80383 13.8598 9.11686 14.2098C8.4299 14.5597 7.82029 15.2595 7.35618 16.6593C7.24567 16.9539 7.19042 17.2118 7.19042 17.4383C7.172 17.6648 7.22726 17.8527 7.30092 18.0221C7.39301 18.2247 7.57718 18.4163 7.77977 18.5746C7.98236 18.7349 8.2402 18.8693 8.51646 18.9522L8.84797 19.0443C9.01373 19.0959 9.21632 19.1585 9.34524 19.1953C9.41891 19.2211 9.50178 19.2469 9.57545 19.2948C9.64912 19.35 9.72279 19.4053 9.75963 19.4789C9.78909 19.5526 9.80751 19.6079 9.80751 19.6631C9.80751 19.7368 9.7983 19.792 9.77068 19.8841C9.70806 20.0867 9.60492 20.1972 9.42627 20.2709C9.2421 20.3445 8.96584 20.363 8.56066 20.3814H3.40384L2.62479 22.608H8.14259C8.6638 22.608 9.61229 22.608 10.5239 22.2139C11.4264 21.8271 12.292 21.0536 12.6788 19.5029C12.8077 18.9319 12.7708 18.4531 12.5498 18.0811C12.3104 17.6943 11.9052 17.4365 11.2975 17.2523L11.0028 17.1602L10.5608 17.0313C10.395 16.9889 10.2845 16.8987 10.2108 16.7863C10.1372 16.6758 10.1188 16.5285 10.1556 16.3867C10.1924 16.2486 10.2845 16.1288 10.4319 16.0552C10.5792 15.9815 10.7634 15.9318 10.9881 15.9318H14.2276L14.294 15.8305C14.8833 15.0017 15.5887 14.335 16.3677 13.8598H11.3582H11.3638ZM25.7808 13.8598C24.3534 13.8598 23.2908 14.5855 22.788 15.941L20.3643 22.6043H23.0237L24.2687 19.1751H26.6132L27.2818 17.3425H24.9391L25.3204 16.2928C25.4014 16.1086 25.5856 15.9612 25.8618 15.9612H28.6318C28.6686 15.9428 28.687 15.906 28.7054 15.8692C29.2948 15.0404 30.1236 14.3774 30.8971 13.8985H25.7955L25.7808 13.8598ZM38.1019 13.869L34.9213 22.6043H37.6212L38.7815 19.5287C38.8368 19.6576 39.5182 22.6043 39.5182 22.6043H42.36C42.36 22.6043 41.8443 20.4385 41.4631 19.5655C41.3655 19.3371 41.2605 19.0866 41.1279 18.8767C41.929 18.5765 43.0893 17.9374 43.5737 16.639C43.8684 15.8286 43.8536 15.184 43.524 14.7236C43.1261 14.1343 42.3176 13.858 41.045 13.858H38.1167L38.1019 13.869ZM43.6455 13.869C43.8149 14.0035 43.9623 14.1582 44.0838 14.335C44.4153 14.7881 44.5259 15.3258 44.4522 15.9428H46.0729L43.6602 22.6099H46.0913L48.5224 15.9428H51.6165L52.3532 13.8801H43.6492L43.6455 13.869ZM39.8829 15.6739H40.3304C41.1444 15.6739 41.4483 15.9134 41.1776 16.6574C40.9142 17.3389 40.4483 17.7809 39.5569 17.7809H39.0965L39.8829 15.6629V15.6739ZM18.4323 15.7145C19.2611 15.7145 19.4545 16.197 18.7233 18.1916C17.9866 20.2396 17.4341 20.7571 16.6237 20.7571C15.8318 20.7571 15.5555 20.2525 16.2922 18.2118C16.8447 16.6906 17.5814 15.7145 18.447 15.7145H18.4323ZM32.9156 15.7145H32.9193C33.7297 15.7145 33.9323 16.197 33.1956 18.1916C32.4405 20.2396 31.9064 20.7571 31.0776 20.7571C30.2672 20.7571 29.991 20.2525 30.7461 18.2118C31.2986 16.6906 32.0169 15.7145 32.9009 15.7145H32.9156Z" fill="white"/>
</g>
</g>
</g>
<defs>
<clipPath id="clip0_3926_5847">
<rect width="53.41" height="35" fill="white" transform="translate(0.78299 0.743164)"/>
</clipPath>
<clipPath id="clip1_3926_5847">
<rect width="53.41" height="35" fill="white" transform="translate(0.78299 0.743164)"/>
</clipPath>
<clipPath id="clip2_3926_5847">
<rect width="53.41" height="34.9928" fill="white" transform="translate(0.78299 0.74707)"/>
</clipPath>
</defs>
</svg>
