<svg width="55" height="36" viewBox="0 0 55 36" fill="none" xmlns="http://www.w3.org/2000/svg">
<g clip-path="url(#clip0_3926_5874)">
<g clip-path="url(#clip1_3926_5874)">
<g clip-path="url(#clip2_3926_5874)">
<path d="M49.736 35.3707H5.23996C2.79784 35.3891 0.801407 33.4277 0.78299 30.9874V4.76124C0.801407 2.31911 2.79784 0.359519 5.23996 0.377936H49.736C52.1781 0.359519 54.1746 2.31911 54.193 4.76124V31.0058C54.1635 33.4369 52.1708 35.3891 49.736 35.3707Z" fill="white"/>
<path d="M6.94723 14.0802C6.9988 13.0857 7.42608 12.2864 7.9786 11.756C8.54953 11.2035 9.29543 10.7854 10.3213 10.743H10.5607C11.5921 10.802 12.3656 11.209 12.9181 11.7652C13.4706 12.3232 13.8758 13.0912 13.9311 14.141V15.2387C14.7967 15.2939 15.9569 15.0177 16.3253 15.5886C16.4542 15.8096 16.3805 16.0859 16.3253 16.3437L15.3123 20.8928C15.2571 21.169 15.2018 21.4453 15.0361 21.6295C14.8703 21.8136 14.6309 21.9241 14.3362 21.9426H6.52916C6.21607 21.9241 5.99138 21.8136 5.83851 21.6295C5.67276 21.4269 5.62856 21.1875 5.56594 20.8928C5.21233 19.2536 4.79794 17.5777 4.46643 15.957V15.8649C4.51616 15.4413 4.83478 15.2755 5.2639 15.2203C5.29336 15.2019 5.34677 15.2203 5.36151 15.2019H6.94907V14.0416M10.3121 11.8499C9.64904 11.8868 9.12415 12.1998 8.78343 12.5682C8.44087 12.9365 8.18119 13.4522 8.19408 14.1152C8.17566 14.4467 8.17566 14.8519 8.19408 15.1834H12.6953C12.6732 14.6862 12.7284 14.2442 12.686 13.839C12.6455 13.4522 12.5203 13.1207 12.3361 12.8444C11.9862 12.3103 11.3895 11.8683 10.5754 11.8131C10.5091 11.7947 10.3784 11.7947 10.3121 11.8131M9.0468 16.6016C8.9805 16.6016 8.93261 16.62 8.92156 16.6752C8.90314 16.8962 8.90314 17.1725 8.92156 17.3935C8.92156 17.4303 8.9584 17.4488 9.01365 17.4488C9.23465 17.4672 9.4925 17.4488 9.73192 17.4488C9.75034 17.4488 9.76875 17.4672 9.76875 17.504C9.76875 18.3328 9.75034 19.1984 9.76875 20.0088C9.78717 20.1745 10.1187 20.1193 10.3581 20.1193C10.6159 20.1193 10.929 20.1561 10.9475 19.9903C10.9659 19.1616 10.9475 18.3144 10.9475 17.4856C10.9475 17.4488 10.9659 17.4303 11.0027 17.4303C11.2421 17.4119 11.5184 17.4303 11.7578 17.4119C11.8131 17.4119 11.8683 17.3935 11.8683 17.3383C11.8867 17.1357 11.8867 16.8594 11.8683 16.6439C11.8499 16.5776 11.8131 16.5518 11.7394 16.5518C10.837 16.5371 9.87926 16.5371 8.97681 16.5518" fill="#5ED000"/>
<path d="M42.4794 15.393C42.4905 15.0302 43.0909 15.1407 43.5476 15.1407C43.9657 15.1407 44.4722 15.056 44.4832 15.393V21.6862C44.4832 21.8741 44.3782 21.9625 44.1885 21.9625H42.7593C42.5512 21.9754 42.4573 21.8796 42.4794 21.6678V15.393ZM17.7229 15.4704C17.7229 15.2917 17.8703 15.2531 18.0434 15.2494H23.1689C23.3402 15.2494 23.482 15.2862 23.4912 15.452V16.7043C23.4875 16.8148 23.4102 16.8517 23.3071 16.8627C22.8227 16.8811 22.3125 16.8627 21.8466 16.8811C21.749 16.8811 21.69 16.918 21.6919 17.0285C21.6698 18.5939 21.6882 20.1778 21.6808 21.7433C21.6679 21.9459 21.4874 21.9827 21.2756 22.0011H19.8151C19.6162 22.0011 19.4431 21.9827 19.4358 21.7801C19.4284 20.2147 19.4468 18.6124 19.4247 17.0653C19.4284 16.9548 19.3768 16.918 19.27 16.918C18.8354 16.8996 18.3583 16.918 17.9071 16.918C17.7893 16.918 17.7156 16.8627 17.7229 16.7338V15.4796M39.0041 16.3728C39.0814 15.975 39.6118 15.9916 40.0649 15.9124C40.3227 15.8682 40.8753 15.684 40.8568 16.0321V17.0322C41.041 17.0543 41.2804 17.0358 41.483 17.0432C41.6672 17.0616 41.704 17.2274 41.7225 17.4116V18.1482C41.704 18.2956 41.6672 18.3877 41.5199 18.3877H40.9305C40.9121 19.0507 40.9121 19.769 40.9305 20.432C40.9489 20.5609 41.041 20.5977 41.2068 20.6162C41.2252 20.6346 41.3173 20.6346 41.3357 20.6162H41.4094C41.5383 20.874 41.5567 21.2608 41.5935 21.6291V21.7764L41.5751 21.8869C41.2804 21.979 40.9305 22.0343 40.5622 22.0527H40.3043C39.8807 22.0343 39.5492 21.9054 39.3098 21.7028C39.273 21.6475 39.2177 21.6107 39.1809 21.5739C39.0151 21.3713 38.9046 21.1134 38.8862 20.7819C38.8678 20.6714 38.8862 20.5425 38.8678 20.4504V19.0323C38.8862 18.8113 38.8678 18.5534 38.8678 18.3324C38.7757 18.2956 38.6468 18.314 38.5179 18.314C38.26 18.314 38.2968 18.0009 38.2968 17.6694C38.2968 17.3011 38.2416 16.988 38.5731 16.988C38.702 16.988 38.8494 17.0064 38.9599 16.9695V16.3065M34.1161 17.3747C34.5582 16.988 35.2028 16.8038 35.9947 16.767H36.492C36.5104 16.7854 36.584 16.767 36.6209 16.7854C36.7535 16.7854 36.9524 16.8038 37.1181 16.8222C37.3318 16.8406 37.597 16.8406 37.5878 17.08V17.2642C37.5786 17.43 37.5399 17.5957 37.4957 17.7431C37.4589 17.8536 37.4128 18.0746 37.2931 18.1114C37.1679 18.1298 36.98 18.0746 36.8327 18.0562C36.6853 18.0377 36.5454 18.0009 36.3907 18.0009C36.3059 17.9825 36.1568 17.9825 36.0776 18.0009C35.9339 18.0009 35.7884 18.0377 35.7829 18.1667C35.7829 18.314 36.0039 18.3969 36.1255 18.4613C36.5491 18.6713 37.0408 18.8665 37.3226 19.1612L37.4331 19.2717C37.6541 19.5166 37.8383 19.8242 37.8567 20.2736V20.4578C37.7959 21.5628 37.0003 21.9238 35.886 21.968H35.4993C34.7994 21.9404 34.1622 21.8685 33.6391 21.6733C33.5894 21.5444 33.5839 21.3786 33.5655 21.2202C33.5655 21.1834 33.5839 21.1189 33.5599 21.0968V20.9679C33.5784 20.944 33.5599 20.8758 33.5673 20.839C33.6041 20.6788 33.5728 20.4578 33.6962 20.4154C33.7699 20.3786 34.0646 20.4762 34.1751 20.4946C34.3703 20.5314 34.5434 20.5499 34.7018 20.5499C34.7202 20.5683 34.7755 20.5499 34.8013 20.5535C35.0904 20.5462 35.6853 20.6272 35.6853 20.3252C35.6853 20.1852 35.4827 20.1042 35.3464 20.0434C34.9228 19.8592 34.4255 19.6566 34.1346 19.3804C34.0977 19.3435 34.0609 19.3067 34.024 19.2883C33.6041 18.9383 33.5121 17.8701 33.9504 17.465C33.9872 17.4281 34.0425 17.3821 34.0793 17.336M26.1617 16.953H27.2723C27.3644 16.9622 27.4196 16.9898 27.4196 17.0819V18.2053C27.4196 18.36 27.2723 18.3932 27.0881 18.3821H26.996C26.9592 18.3821 26.9039 18.3674 26.8855 18.3877C26.333 18.4061 25.891 18.5534 25.8357 19.0875C25.8173 19.8795 25.8357 20.7267 25.8357 21.537C25.8173 21.7396 25.7547 21.8685 25.5411 21.8869H24.2334C23.994 21.8685 23.8467 21.758 23.8283 21.5186V18.0028C23.8467 17.7394 23.9204 17.5497 24.0309 17.395C24.0677 17.3692 24.1045 17.3342 24.1358 17.2992C24.3753 17.1206 24.7068 17.034 25.1193 17.0266C25.4692 17.0211 25.8376 17.0395 26.1691 17.0174M28.0477 17.4558C28.0661 17.2311 28.1397 17.0561 28.3607 17.0285H29.7181C29.8839 17.0469 30.0312 17.139 30.1049 17.2679C30.1785 17.4152 30.1417 17.802 30.1417 18.0414V18.8518C30.1417 19.3491 30.0496 20.1226 30.3443 20.2515C30.6205 20.3804 30.8968 20.1778 30.8784 19.8832C30.8968 19.0728 30.8784 18.2256 30.8968 17.3784C30.9152 17.1942 30.9889 17.0653 31.1915 17.0469H32.5175C32.7569 17.0653 32.8859 17.1942 32.9227 17.4152V20.6198C32.8674 21.4118 32.5728 21.9459 31.7992 22.0011H29.3295C28.9538 22.0011 28.6849 21.8906 28.4713 21.7249C28.4344 21.688 28.3976 21.6512 28.3552 21.6144C28.171 21.3749 28.0605 21.0619 28.0605 20.6567V17.4687M46.4041 23.8097C46.3305 23.8042 46.1647 23.7913 46.1279 23.6992C46.0726 23.5703 46.2199 23.3438 46.2752 23.2167L46.8461 21.8722C46.2936 20.4541 45.6674 18.9439 45.0781 17.4705C44.986 17.2495 44.986 17.0469 45.2807 17.0469H46.8259C47.1758 17.1021 47.2458 17.4705 47.36 17.802C47.5257 18.2809 47.7394 18.8518 47.8867 19.2938C48.0893 18.8518 48.3232 18.244 48.5276 17.7283C48.6455 17.4521 48.7302 17.139 49.0562 17.0837H50.2717C50.6769 17.0653 50.5112 17.3968 50.4007 17.6178C49.664 19.3859 48.9457 21.0987 48.1906 22.8483C48.0617 23.143 47.9512 23.4561 47.8038 23.6771C47.767 23.7139 47.7486 23.7508 47.7117 23.7876C47.6565 23.8244 47.5828 23.8613 47.4907 23.8797H46.4041" fill="black"/>
<path d="M8.02635 25.0021C7.63958 24.98 7.31728 24.8069 7.1018 24.5859C6.88079 24.3539 6.71504 24.0426 6.71504 23.6429C6.69662 22.8179 7.30439 22.2985 8.0595 22.2303H8.14974C8.90485 22.304 9.47578 22.8013 9.47578 23.6116C9.48131 24.4367 8.8938 24.9193 8.15527 25.0021H8.02635ZM11.8571 22.5895C12.0781 22.3998 12.3507 22.2524 12.7412 22.2322H12.8517C13.2532 22.258 13.5589 22.4127 13.7836 22.6521C13.9862 22.8768 14.1703 23.1917 14.1703 23.6024C14.1703 24.4238 13.581 24.9229 12.8443 25.0021H12.7338C12.347 24.9745 12.0708 24.8327 11.8498 24.6448C11.8129 24.608 11.7761 24.5749 11.7393 24.5472C11.5735 24.3225 11.4078 24.0629 11.3893 23.6706V23.5638C11.4078 23.1586 11.5551 22.9007 11.7393 22.6797C11.7761 22.6429 11.8129 22.6245 11.8498 22.5876" fill="#5ED000"/>
</g>
</g>
</g>
<defs>
<clipPath id="clip0_3926_5874">
<rect width="53.41" height="35" fill="white" transform="translate(0.78299 0.373901)"/>
</clipPath>
<clipPath id="clip1_3926_5874">
<rect width="53.41" height="35" fill="white" transform="translate(0.78299 0.373901)"/>
</clipPath>
<clipPath id="clip2_3926_5874">
<rect width="53.41" height="34.9928" fill="white" transform="translate(0.78299 0.377808)"/>
</clipPath>
</defs>
</svg>
